<svg width="662" height="145" viewBox="0 0 662 145" fill="none" xmlns="http://www.w3.org/2000/svg"><path d="M157.206 144.997h-37.202c-.071-.042-.198-.143-.382-.285-.084-.058-.184-.142-.285-.213-.724-.554-1.889-1.391-2.697-1.818-5.069-2.611-10.264-4.998-15.216-7.822-3.1672-1.789-6.1173-4.017-8.9573-6.33-2.1996-1.789-2.5975-4.357-1.2777-6.871 2.6815-5.111 4.1889-10.787 7.9929-15.345 1.2061-1.449 2.0151-3.422 2.4261-5.279.285-1.4332.213-3.5487-.653-4.5417-1.8442-2.1285-2.2842-4.3443-2.0448-6.9417.1132-1.3069.0421-2.6104 0-3.9334-.2976-8.4329-5.0397-14.9897-12.9033-16.6362-4.1307-.8507-8.4037-.9639-12.5894-.3137-8.6885 1.378-13.9384 7.9477-14.2522 16.7364-.0712 2.0572.1553 4.1178-.0841 6.1459-.1423 1.3489-.5952 2.8401-1.4039 3.8881-1.5332 2.0314-2.0152 4.0725-1.0351 6.3883.6955 1.634 1.2777 3.449 2.4002 4.755 3.8622 4.529 5.2079 10.29 7.9347 15.359 1.2195 2.241.8087 4.599-1.1353 6.275-2.4972 2.171-5.0818 4.386-7.9477 6.02-4.9686 2.811-10.1506 5.208-15.2743 7.721-1.1937.582-2.9824 1.831-3.9464 2.539-.1132.072-.2264.156-.3138.214-.1973.142-.3267.242-.3687.285H.898438l.155262-.285.11322-.214L79.0523.230469 156.938 144.502l.113.213.155.285v-.003ZM202.587 46.7354h13.68l21.802 51.5774h-15.216l-3.73-9.1445h-19.754l-3.659 9.1445h-14.925l21.802-51.5774Zm12.438 31.3864-5.706-14.5595-5.781 14.5595h11.487ZM246.188 47.1006h13.242l21.071 27.0681V47.1006h14.049v51.2119h-12.438l-21.876-28.0934v28.0934h-14.048V47.1006ZM321.542 79.1436l-19.46-32.043h16.167l10.536 18.6546 10.606-18.6546h15.876l-19.46 31.8231v19.3888h-14.265V79.1436ZM362.801 47.1006h26.266c6.437 0 10.975 1.6109 13.974 4.6095 2.047 2.0475 3.293 4.755 3.293 8.2679v.1455c0 5.926-3.365 9.4389-7.903 11.4121 6.217 2.0476 10.17 5.5605 10.17 12.5119v.1455c0 8.779-7.171 14.1195-19.389 14.1195h-26.411V47.1006Zm22.753 20.411c4.315 0 6.731-1.4621 6.731-4.4639v-.1455c0-2.7787-2.196-4.3895-6.437-4.3895h-9.219v8.9989h8.925Zm2.047 19.3889c4.315 0 6.803-1.6821 6.803-4.6839v-.1455c0-2.7787-2.196-4.6095-6.951-4.6095h-10.827v9.4389h10.975ZM416.5 72.8521v-.1455c0-14.705 11.852-26.6314 27.654-26.6314 15.801 0 27.508 11.7776 27.508 26.4826v.1455c0 14.705-11.852 26.6314-27.654 26.6314S416.5 87.5571 416.5 72.8521Zm40.677 0v-.1455c0-7.3881-5.341-13.8284-13.169-13.8284-7.754 0-12.949 6.2915-12.949 13.6796v.1455c0 7.3881 5.341 13.8284 13.098 13.8284 7.828 0 13.023-6.2915 13.023-13.6796h-.003ZM482.195 47.1006h19.755c18.289 0 28.899 10.5354 28.899 25.3148v.1456c0 14.7794-10.756 25.7515-29.19 25.7515h-19.46V47.1006h-.004Zm19.975 38.6289c8.488 0 14.119-4.6838 14.119-12.9485v-.1456c0-8.1935-5.635-12.9485-14.119-12.9485h-5.781v26.0459h5.781v-.0033ZM541.602 47.1006h14.265v51.2119h-14.265V47.1006ZM568.375 47.1006h41.191v12.0719h-27.143v7.7536h24.581v11.1921h-24.581v8.1224h27.508v12.0719h-41.556V47.1006ZM616.438 90.7042l7.902-9.4389c5.049 4.024 10.681 6.1459 16.607 6.1459 3.804 0 5.852-1.3165 5.852-3.5129v-.1455c0-2.122-1.683-3.293-8.634-4.9006-10.901-2.4875-19.314-5.5605-19.314-16.096v-.1455c0-9.5101 7.536-16.3871 19.825-16.3871 8.705 0 15.511 2.342 21.071 6.8026l-7.097 10.0244c-4.684-3.2929-9.804-5.0494-14.339-5.0494-3.439 0-5.121 1.4621-5.121 3.293v.1455c0 2.342 1.756 3.3641 8.853 4.975 11.778 2.5619 19.095 6.3659 19.095 15.9504v.1455c0 10.4611-8.268 16.6814-20.705 16.6814-9.074 0-17.704-2.853-23.995-8.4878Z" fill="#fff"/></svg>