<svg width="154" height="48" viewBox="0 0 154 48" fill="none" xmlns="http://www.w3.org/2000/svg"><path d="M34.4735 24.7423h13.1832C47.2663 37.6534 36.7485 48 23.8312 48 10.9139 48 .396149 37.6534.00565927 24.7423H13.2908l10.5913 23.0782 10.5914-23.0782ZM8.74924 14.8431c-3.47763 1.2994-7.06561 3.824-8.619077 6.5824C.0594224 22.098.0141482 22.7761 0 23.4629h12.7051l-3.95586-8.6198ZM24.9093 4.69599c.4103.72378-11.5336 1.44471-14.8669.77507-.31128-.06269-.56877-.20232-.77817-.40178l2.82117 6.14922c.2264.0399.4046.114.5178.2394 1.2309 1.3421 3.4861.8776 4.6151 1.7553.4584.3562-.9168.1852-3.9473.587l.6197 1.3506h19.9829l1.2761-2.7811c-.6734.3733-1.1912.6782-1.477.7893-1.18.4645-2.974.3106-2.5127.2593.4612-.0512 1.6921-.8263 2.5636-1.2395.3452-.1624 1.0951-.6696 2.1166-1.3165l2.6542-5.78447C34.4537 1.89777 29.3631 0 23.8312 0c-3.0277 0-5.9253.569902-8.5908 1.60712 3.5059 1.1683 9.2643 2.37934 9.6689 3.08887Zm16.2138 5.55941L35.062 23.4629h12.6032c-.0396-1.7781-.2716-3.5078-.6734-5.169-.8234-.0428-1.6242-.2309-2.1392-.3847-.8716-.2593-2.0006-.0513-3.4352 0s-1.129-.4132-.9225-.9803c.1981-.5442 3.7946-1.9918 5.3509-2.1542-.5801-1.4019-1.2875-2.7355-2.1109-3.9865-.0368-.0171-.0764-.0341-.1132-.0512-.7782-.3933-1.6299-.5215-2.4986-.4816ZM7.36272 11.8226 5.7668 8.34337c-.46689.54425-.90831 1.10846-1.32427 1.69543.79513 1.1256 1.66383 1.8779 2.92019 1.7838ZM17.705 23.4629h12.3571l1.9694-4.2885H15.7356l1.9694 4.2885Zm6.1771 13.4611 5.5914-12.1817H18.2936l5.5885 12.1817ZM68.3914 31.5816h-5.3341L62.2663 34H57l5.8539-16.0022H68.64L74.4713 34h-5.2889l-.791-2.4184Zm-1.2205-3.7745-1.4466-4.4526-1.4465 4.4526h2.8931Zm12.667-9.8093v9.0182c0 .7383.1582 1.326.4746 1.763.3315.4219.8589.6328 1.5821.6328.7233 0 1.2582-.2109 1.6048-.6328.3465-.437.5198-1.0247.5198-1.763v-9.0182h4.995v9.0182c0 1.5219-.3164 2.8252-.9492 3.9101-.6329 1.0699-1.4993 1.876-2.5993 2.4184-1.0999.5425-2.328.8137-3.6841.8137s-2.5615-.2712-3.6163-.8137c-1.0397-.5424-1.8534-1.3485-2.441-2.4184-.5877-1.0698-.8815-2.3732-.8815-3.9101v-9.0182h4.9951ZM98.5466 34l-3.006-5.7409h-.0227V34h-5.0176V17.9978h7.4587c1.2958 0 2.403.2336 3.322.7007.92.452 1.605 1.0773 2.057 1.8759.467.7836.701 1.6726.701 2.6671 0 1.0698-.301 2.0191-.904 2.8478-.588.8288-1.439 1.4239-2.554 1.7856L104.061 34h-5.5144Zm-3.0287-9.086h1.989c.4822 0 .8438-.1055 1.0849-.3164.2411-.226.3616-.5726.3616-1.0397 0-.4219-.128-.7534-.3842-.9945-.2411-.2411-.5952-.3616-1.0623-.3616h-1.989v2.7122Zm17.2431 9.2442c-1.506 0-2.893-.3541-4.158-1.0623-1.251-.7082-2.245-1.6876-2.984-2.9382-.738-1.2507-1.107-2.6595-1.107-4.2266 0-1.5671.369-2.9759 1.107-4.2266.739-1.2506 1.733-2.2225 2.984-2.9156 1.265-.7082 2.652-1.0623 4.158-1.0623 1.507 0 2.886.3541 4.137 1.0623 1.25.6931 2.237 1.665 2.96 2.9156.739 1.2507 1.108 2.6595 1.108 4.2266 0 1.5671-.369 2.9759-1.108 4.2266-.723 1.2506-1.717 2.23-2.983 2.9382-1.251.7082-2.622 1.0623-4.114 1.0623Zm0-4.6786c.995 0 1.763-.3164 2.306-.9493.542-.6479.814-1.5143.814-2.5992 0-1.1-.272-1.9664-.814-2.5992-.543-.6479-1.311-.9719-2.306-.9719-1.009 0-1.785.324-2.328.9719-.542.6328-.813 1.4992-.813 2.5992 0 1.0849.271 1.9513.813 2.5992.543.6329 1.319.9493 2.328.9493ZM130.144 34l-3.006-5.7409h-.022V34h-5.018V17.9978h7.459c1.295 0 2.403.2336 3.322.7007.919.452 1.605 1.0773 2.057 1.8759.467.7836.701 1.6726.701 2.6671 0 1.0698-.302 2.0191-.905 2.8478-.587.8288-1.438 1.4239-2.554 1.7856L135.659 34h-5.515Zm-3.028-9.086h1.989c.482 0 .843-.1055 1.085-.3164.241-.226.361-.5726.361-1.0397 0-.4219-.128-.7534-.384-.9945-.241-.2411-.595-.3616-1.062-.3616h-1.989v2.7122Zm24.815-6.9162-5.741 11.1428V34h-5.018v-4.8594l-5.741-11.1428h5.741l2.554 5.6731 2.554-5.6731h5.651Z" fill="#fff"/></svg>