<svg width="237" height="38" viewBox="0 0 237 38" fill="none" xmlns="http://www.w3.org/2000/svg"><path d="M220.916 6.61536c-1.467.00987-2.655 1.2202-2.655 2.70982 0 1.45692 1.136 2.64712 2.559 2.70762l6.761.0009v-.0009c4.87 0 8.823 4.0085 8.823 8.9458 0 4.9234-3.931 8.9229-8.781 8.9458l-13.568.0009c-.431 0-.646-.2825-.795-.6303l-1.97-4.8127c-.184-.4299.118-.7944.466-.7944h15.867c1.462-.0224 2.643-1.2211 2.643-2.7093 0-1.4888-1.181-2.6852-2.643-2.7076h-6.69c-4.869 0-8.822-4.0085-8.822-8.94582 0-4.93731 3.953-8.945785 8.822-8.945785h14.02c.43 0 .78.282416.631.630275l-2.134 4.97676c-.144.33486-.447.63028-.795.63028l-11.722-.00135h-.017ZM125.935 12.0669l-7.456 16.9067c-.246.5424-.374.9822-.916.9822l-4.924.0018c-.706 0-1.096-.1937-.753-.9818l12.041-27.68279c.246-.460378.399-.798381.942-.798381h2.132c.542 0 .694.338003.94.798381l12.042 27.68279c.342.7881-.047.9818-.752.9818l-4.925-.0018c-.543 0-.67-.4398-.916-.9822l-7.455-16.9067ZM163.048 29.9253c-.348 0-.63-.2825-.63-.6303V1.00967c0-.347859.282-.630275.63-.630275h4.977c.348 0 .63.282416.63.630275V23.6879h12.666c.348 0 .657.3645.466.7944l-2.052 4.8127c-.191.4299-.446.6303-.877.6303h-15.81ZM145.164 6.61671h-7.905c-.348 0-.63-.28197-.63-.63028V1.00967c0-.347859.282-.630275.63-.630275h22.048c.348 0 .63.282416.63.630275v4.97676c0 .34831-.282.63028-.63.63028h-7.905V29.295c0 .3478-.283.6303-.631.6303h-4.976c-.348 0-.631-.2825-.631-.6303V6.61671ZM195.935 12.0669l-7.456 16.9067c-.246.5424-.374.9822-.916.9822l-4.924.0018c-.706 0-1.096-.1937-.753-.9818l12.041-27.68279c.247-.460378.399-.798381.942-.798381h2.132c.542 0 .694.338003.941.798381l12.041 27.68279c.342.7881-.047.9818-.752.9818l-4.925-.0018c-.542 0-.67-.4398-.916-.9822l-7.455-16.9067ZM77.39.379395h13.2399c5.1188 0 9.2744 4.284175 9.2744 9.561275 0 3.96813-2.3499 7.37413-5.6909 8.82023l6.8326 10.1822c.164.7876-.293.9813-.999.9813l-5.1706-.0014c-.5415 0-.7518-.5222-1.0799-.9826l-6.5314-9.438h-4.268v9.7926c0 .3478-.282.6303-.6303.6303H77.39c-.3478 0-.6302-.2825-.6302-.6303V1.00967c0-.347859.2824-.630275.6302-.630275ZM90.6299 6.61671h-7.6328v6.64789h7.6328v-.0148c1.772 0 3.2101-1.4828 3.2101-3.30913 0-1.82582-1.4381-3.30918-3.2101-3.30918v-.01478ZM60.5382 12.0669l-7.4553 16.9067c-.2466.5424-.3743.9822-.9163.9822l-4.9243.0018c-.706 0-1.0956-.1937-.7527-.9818L58.5308 1.29301c.2461-.460378.399-.798381.9414-.798381h2.132c.5419 0 .6943.338003.9409.798381L74.5867 28.9758c.342.7881-.0471.9818-.7527.9818l-4.9243-.0018c-.5424 0-.6697-.4398-.9163-.9822l-7.4552-16.9067ZM34.6354 6.61671h-8.8897c-.4299 0-.7052-.28197-.4927-.79435l2.0782-4.81269c.1027-.24879.3645-.630275.7123-.630275h20.7346c.3478 0 .6303.282416.6303.630275v4.97676c0 .34831-.2825.63028-.6303.63028h-7.9049V29.295c0 .3478-.2829.6303-.6307.6303h-4.9763c-.3479 0-.6308-.2825-.6308-.6303V6.61671ZM9.71411 6.61536c-1.46703.00987-2.65518 1.2202-2.65518 2.70982 0 1.45692 1.1362 2.64712 2.55858 2.70762l6.76169.0009v-.0009c4.8694 0 8.8228 4.0085 8.8228 8.9458 0 4.9234-3.9314 8.9229-8.7818 8.9458l-15.455539.0009c-.430031 0-.744631-.3645-.630545-.6303l2.051804-4.9768c.07912-.2748.36463-.6303.71262-.6303H16.4202c1.4625-.0224 2.6431-1.2211 2.6431-2.7093 0-1.4888-1.1806-2.6852-2.6431-2.7076H9.73137c-4.86944 0-8.822743-4.0085-8.822743-8.94582 0-4.93731 3.953303-8.945785 8.822743-8.945785H24.079c.3479 0 .6778.242071.5483.630275l-2.1338 4.97676c-.1834.44424-.4465.63028-.7948.63028L9.73137 6.61536h-.01726Z" fill="#fff"/><path d="m126.342 37.6826-4.924-9.8486h9.684l-4.76 9.8486Z" fill="#32FEFF"/></svg>