<svg width="154" height="32" viewBox="0 0 154 32" fill="none" xmlns="http://www.w3.org/2000/svg"><path d="M3 9.85156H-3e-8C-1e-7 15.65 4.70156 20.3516 10.5 20.3516v6.75c0 .4125.3375.75.75.75h1.5c.4125 0 .75-.3375.75-.75v-6.75C13.5 14.5531 8.79844 9.85156 3 9.85156Zm18-3c-3.9469 0-7.3781 2.17969-9.1734 5.40004 1.2984 1.4156 2.2593 3.1359 2.7656 5.0437C19.875 16.7469 24 12.2844 24 6.85156h-3ZM39.5486 24.288c-1.232 0-2.32-.208-3.264-.624-.944-.432-1.688-1.04-2.232-1.824-.544-.8-.824-1.768-.84-2.904h3.24c.032.784.312 1.448.84 1.992.544.528 1.288.792 2.232.792.816 0 1.464-.192 1.944-.576.48-.4.72-.928.72-1.584 0-.688-.216-1.224-.648-1.608-.416-.384-.976-.696-1.68-.936-.704-.24-1.456-.496-2.256-.768-1.296-.448-2.288-1.024-2.976-1.728-.672-.704-1.008-1.64-1.008-2.808-.016-.992.216-1.84.696-2.544.496-.72 1.168-1.272 2.016-1.656.848-.4 1.824-.6 2.928-.6 1.12 0 2.104.2 2.952.6.864.4 1.536.96 2.016 1.68.496.72.76 1.576.792 2.568h-3.288c-.016-.592-.248-1.112-.696-1.56-.432-.464-1.04-.696-1.824-.696-.672-.016-1.24.152-1.704.504-.448.336-.672.832-.672 1.488 0 .56.176 1.008.528 1.344.352.32.832.592 1.44.816.608.224 1.304.464 2.088.72.832.288 1.592.624 2.28 1.008.688.384 1.24.896 1.656 1.536.416.624.624 1.432.624 2.424 0 .88-.224 1.696-.672 2.448-.448.752-1.112 1.36-1.992 1.824-.88.448-1.96.672-3.24.672Zm14.5363 0c-1.2 0-2.264-.256-3.192-.768-.928-.512-1.656-1.232-2.184-2.16-.528-.928-.792-2-.792-3.216 0-1.232.256-2.328.768-3.288.528-.96 1.248-1.704 2.16-2.232.928-.544 2.016-.816 3.264-.816 1.168 0 2.2.256 3.096.768.896.512 1.592 1.216 2.088 2.112.512.88.768 1.864.768 2.952 0 .176-.008.36-.024.552 0 .192-.008.392-.024.6h-9.048c.064.928.384 1.656.96 2.184.592.528 1.304.792 2.136.792.624 0 1.144-.136 1.56-.408.432-.288.752-.656.96-1.104h3.12c-.224.752-.6 1.44-1.128 2.064-.512.608-1.152 1.088-1.92 1.44-.752.352-1.608.528-2.568.528Zm.024-9.984c-.752 0-1.416.216-1.992.648-.576.416-.944 1.056-1.104 1.92h5.928c-.048-.784-.336-1.408-.864-1.872-.528-.464-1.184-.696-1.968-.696Zm14.5598 9.984c-1.2 0-2.264-.256-3.192-.768-.928-.512-1.656-1.232-2.184-2.16-.528-.928-.792-2-.792-3.216 0-1.232.256-2.328.768-3.288.528-.96 1.248-1.704 2.16-2.232.928-.544 2.016-.816 3.264-.816 1.168 0 2.2.256 3.096.768.896.512 1.592 1.216 2.088 2.112.512.88.768 1.864.768 2.952 0 .176-.008.36-.024.552 0 .192-.008.392-.024.6h-9.048c.064.928.384 1.656.96 2.184.592.528 1.304.792 2.136.792.624 0 1.144-.136 1.56-.408.432-.288.752-.656.96-1.104h3.12c-.224.752-.6 1.44-1.128 2.064-.512.608-1.152 1.088-1.92 1.44-.752.352-1.608.528-2.568.528Zm.024-9.984c-.752 0-1.416.216-1.992.648-.576.416-.944 1.056-1.104 1.92h5.928c-.048-.784-.336-1.408-.864-1.872-.528-.464-1.184-.696-1.968-.696Zm14.2477 9.984c-1.12 0-2.12-.272-3-.816-.88-.544-1.576-1.288-2.088-2.232-.512-.944-.768-2.016-.768-3.216 0-1.2.256-2.264.768-3.192.512-.944 1.208-1.68 2.088-2.208.88-.544 1.88-.816 3-.816.896 0 1.68.168 2.352.504.672.336 1.216.808 1.632 1.416V6.72h3.072V24h-2.736l-.336-1.704c-.384.528-.896.992-1.536 1.392-.624.4-1.44.6-2.448.6Zm.648-2.688c.992 0 1.8-.328 2.424-.984.64-.672.96-1.528.96-2.568s-.32-1.888-.96-2.544c-.624-.672-1.432-1.008-2.424-1.008-.976 0-1.784.328-2.424.984-.64.656-.96 1.504-.96 2.544s.32 1.896.96 2.568c.64.672 1.448 1.008 2.424 1.008Zm15.807 2.4V7.2h3.0716v14.4h7.44V24H99.3954Zm17.4906.288c-1.024 0-1.864-.16-2.52-.48-.656-.336-1.144-.776-1.464-1.32-.32-.544-.48-1.144-.48-1.8 0-1.104.432-2 1.296-2.688.864-.688 2.16-1.032 3.888-1.032h3.024v-.288c0-.816-.232-1.416-.696-1.8-.464-.384-1.04-.576-1.728-.576-.624 0-1.168.152-1.632.456-.464.288-.752.72-.864 1.296h-3c.08-.864.368-1.616.864-2.256.512-.64 1.168-1.128 1.968-1.464.8-.352 1.696-.528 2.688-.528 1.696 0 3.032.424 4.008 1.272.976.848 1.464 2.048 1.464 3.6V24h-2.616l-.288-1.92c-.352.64-.848 1.168-1.488 1.584-.624.416-1.432.624-2.424.624Zm.696-2.4c.88 0 1.56-.288 2.04-.864.496-.576.808-1.288.936-2.136h-2.616c-.816 0-1.4.152-1.752.456-.352.288-.528.648-.528 1.08 0 .464.176.824.528 1.08.352.256.816.384 1.392.384Zm16.348 2.4c-.896 0-1.68-.168-2.352-.504-.672-.336-1.216-.808-1.632-1.416L129.61 24h-2.736V6.72h3.072v7.08c.384-.528.888-.992 1.512-1.392.64-.4 1.464-.6 2.472-.6 1.12 0 2.12.272 3 .816.88.544 1.576 1.288 2.088 2.232.512.944.768 2.016.768 3.216 0 1.2-.256 2.272-.768 3.216-.512.928-1.208 1.664-2.088 2.208-.88.528-1.88.792-3 .792Zm-.648-2.688c.976 0 1.784-.328 2.424-.984.64-.656.96-1.504.96-2.544s-.32-1.896-.96-2.568c-.64-.672-1.448-1.008-2.424-1.008-.992 0-1.808.336-2.448 1.008-.624.656-.936 1.504-.936 2.544s.312 1.896.936 2.568c.64.656 1.456.984 2.448.984Zm14.408 2.688c-1.056 0-1.984-.168-2.784-.504-.8-.352-1.44-.832-1.92-1.44s-.768-1.312-.864-2.112h3.096c.096.464.352.864.768 1.2.432.32.984.48 1.656.48.672 0 1.16-.136 1.464-.408.32-.272.48-.584.48-.936 0-.512-.224-.856-.672-1.032-.448-.192-1.072-.376-1.872-.552-.512-.112-1.032-.248-1.56-.408-.528-.16-1.016-.36-1.464-.6-.432-.256-.784-.576-1.056-.96-.272-.4-.408-.888-.408-1.464 0-1.056.416-1.944 1.248-2.664.848-.72 2.032-1.08 3.552-1.08 1.408 0 2.528.328 3.36.984.848.656 1.352 1.56 1.512 2.712h-2.904c-.176-.88-.84-1.32-1.992-1.32-.576 0-1.024.112-1.344.336-.304.224-.456.504-.456.84 0 .352.232.632.696.84.464.208 1.08.4 1.848.576.832.192 1.592.408 2.28.648.704.224 1.264.568 1.68 1.032.416.448.624 1.096.624 1.944.016.736-.176 1.4-.576 1.992-.4.592-.976 1.056-1.728 1.392-.752.336-1.64.504-2.664.504Z" fill="#fff"/></svg>