<svg width="39" height="46" viewBox="0 0 39 46" fill="none" xmlns="http://www.w3.org/2000/svg"><path d="m10.5084 7.75918.9895.52256 5.6586 2.37816c.5112.2795 1.0795.4384 1.6616.4644.582.026 1.1623-.0816 1.6963-.3144 1.264-.5043 2.5565-.93405 3.8708-1.28709l-.5903-.74271c-1.3814.45482-2.7216.87336-4.045 1.3379-.5493.2352-1.1685.2482-1.7273.0362-.4258-.17657-4.7127-1.99585-7.1561-3.03612-.95081-.40644-1.62095-.69191-1.67902-.72578-1.04753-.50562-.64109-1.3693.03388-1.6209.24192-.09677 4.66674-1.78057 6.63114-2.49667 1.2508-.45482 2.5112-.88302 3.7692-1.311227.1452-.048385.9677-.404013 2.2741.198377 1.7854.82981 3.6289 1.53138 5.4385 2.30554.7475.31934 1.4878.6532 2.2305.98222l1.3548.59029c.8153.3508 1.0354 1.27979 0 1.5943-.6992.21289-1.6669.51529-2.1773.67496.45.53224.8298 1.00399 1.229 1.45155.6846.78384 1.5289 1.95236 1.6402 2.12166.2782.4258.0436.8589-.4379.8564h-.2056c.7403 1.5169 1.5604 3.3338 2.3176 5.3369.3557-1.2096 1.1444-1.2096 1.65-1.0911.8685.2057 1.033 1.4879 1.0015 3.1959-.0218 1.1757.4282 2.1942 1.1564 2.7845.5879.4839 1.7903 1.8798.9048 2.9854-.1558.1916-.359.3392-.5894.4283-.2303.0891-.48.1166-.7242.0797.4209 1.3112 1.2725 4.4829.4838 6.7739-.3919 1.1419-.8588.9556-1.2822.2976-.2129 2.0733-.8491 5.8062-2.7192 8.0972-.8903 1.0838-1.437.9169-1.6935.1766-5.049 4.1805-12.5511 3.8152-12.5511 3.8152-5.4723-.1452-9.0431-1.6935-11.38493-3.6894-.27821.629-.81046.7258-1.64752-.3024-1.55316-1.8943-2.25474-4.7949-2.56925-6.9142-.08467-.3726-.14998-.7258-.20078-1.0258-.00118-.0217-.00118-.0435 0-.0653-.40886.5806-.84917.6968-1.22174-.3895-.79109-2.2983.06049-5.4699.48385-6.7739-.24423.0369-.49386.0094-.72424-.0797-.23037-.0891-.43352-.2367-.58939-.4283-.885448-1.1056.31692-2.5136.90479-2.9854.72578-.5903 1.17816-1.6088 1.15638-2.7845-.03145-1.708.13307-2.9902 1.00158-3.1959.46933-.1137 1.18058-.1161 1.56524.8444.9677-2.4193 1.99107-4.5628 2.83539-6.2079.55937-1.04987 1.24862-2.02523 2.05152-2.90305l-.5056-.35321c-.80874.90846-1.50788 1.90881-2.08302 2.98046-.94834 1.8459-1.75878 3.5854-2.4652 5.2861-.22334-.15-.47677-.2494-.74255-.2912-.26578-.0418-.53749-.0249-.79609.0493-1.3451.3218-1.49753 2.0152-1.46608 3.7982.01694.9532-.33143 1.8145-.92898 2.3007-.996733.7984-2.085397 2.4798-.999154 3.837.253216.3203.601244.5523.994304.6628-.48385 1.7395-.967685 4.3716-.26126 6.4401.09435.2782.38466 1.1249 1.09108 1.2265.09225.0134.18597.0134.27822 0 .36531 2.354 1.0959 5.3611 2.73616 7.3618.60481.7258 1.16124 1.0572 1.69347.9822.18384-.0255.35798-.098.50562-.2104 2.78938 2.1579 6.57798 3.3167 11.26158 3.4401h.5492c1.7878 0 7.4997-.2733 11.8785-3.5418.1567.1545.3567.2574.5734.2952.554.0992 1.1249-.2202 1.7418-.9677 1.679-2.0467 2.4193-5.1748 2.7265-7.3642.0898.0146.1813.0146.271 0 .7258-.0871 1.0161-.9459 1.1104-1.2266.7258-2.0708.2274-4.703-.2588-6.4424.3925-.1117.7396-.3445.9919-.6653 1.0862-1.3548 0-3.0338-.9968-3.8345-.5999-.4839-.9483-1.3476-.9314-2.3007.0339-1.783-.1209-3.4765-1.4685-3.7983-.2835-.0849-.5836-.0988-.8738-.0406-.2903.0582-.5617.1868-.7906.3745-.4838-1.1709-.9943-2.3636-1.5652-3.5636.1509-.0975.2748-.2315.3604-.3895.0973-.1903.1406-.4037.1253-.6169-.0154-.2133-.0888-.4182-.2124-.5927-.1331-.2032-.9991-1.39589-1.6935-2.1894-.2129-.24193-.4209-.48386-.6386-.7524l1.3112-.40401c.6725-.20564 1.0911-.66771 1.1225-1.23866.0339-.61449-.3822-1.19753-1.0596-1.48784l-2.1314-.93625c-.4838-.21773-.9677-.43304-1.4515-.64109-.6653-.28306-1.3427-.56127-1.9983-.83223-1.1322-.46207-2.3007-.94109-3.4233-1.451553-.8436-.428904-1.822-.508843-2.724-.222567-1.2871.440303-2.5475.8685-3.7813 1.31607-1.8411.67255-5.83768 2.19426-6.63362 2.49908-.28801.09619-.542.27371-.73132.51111-.18933.23741-.30586.52455-.33554.82675 0 .27095.05804.94833.9822 1.39347.04354.02178.24193.10403 1.09348.48385l.4742.33145Z" fill="#fff"/><path d="M35.4265 22.7659c-.032.0248-.0705.0398-.1108.0432-.0404.0034-.0808-.0048-.1166-.0238-.2557-.1334-.4807-.3189-.6605-.5444-.1834-.2271-.3214-.4875-.4064-.7669-.0855-.2731-.1263-.5582-.121-.8444.0025-.2837.0558-.5648.1573-.8298.0172-.0438.0489-.0803.0898-.1035.0409-.0233.0885-.0318.1349-.0241.0465.0076.0889.0309.1202.066.0313.0352.0496.0799.0518.1269v.0266c0 .2274.0291.4839.0605.7089.0292.2279.0778.4529.1452.6726.0657.2156.1567.4227.271.6169.1191.1992.2551.3878.4064.5637l.0145.0218c.0334.0434.0483.0983.0415.1526-.0068.0544-.0347.1039-.0778.1377ZM30.6264 11.0565l-.1403-.0266c-.4427-.0823-1.1491-.2419-1.3475-.2685-.3992-.075-.4669 0-.5976.387-.1306.3871-.3048.779-.508 1.2605-.029.0629-.0895.3169-.271.0895-1.1031-1.3742-2.1289-2.66119-3.1837-3.97484 1.2338-.37983 2.0564-.5782 3.3652-.94592.7137.9435 2.5378 2.74826 2.8571 3.32166.075.133.0266.2032-.1742.1572ZM30.2283 16.2555c-1.6378-.1016-7.79-.525-10.2915-.5008-2.5015.0242-9.8609.3992-11.49868.5008-.11801.0147-.23711-.0169-.3323-.0882-.09518-.0713-.15905-.1767-.17816-.294-.00318-.0959.02686-.1899.08505-.2662.05819-.0763.14096-.1301.23428-.1524.80077-.2419 7.40531-1.0499 11.37051-1.0499 3.0942 0 10.0133.8104 10.814 1.0499.0933.0223.1761.0761.2343.1524s.0882.1703.0851.2662c-.0191.1197-.0847.2271-.1826.2987-.0979.0716-.2201.1016-.34.0835ZM26.478 17.175c-.0088-.1367.0085-.2738.0508-.404 1.1226 0 2.0129.0798 2.4484.1258.0214.1107.0287.2237.0218.3363 0 .5734-.5855 1.0258-1.2823 1.0089-.6968-.017-1.2605-.4936-1.2387-1.067ZM10.4195 17.2331c-.007-.1126.0004-.2256.0217-.3363.4355-.046 1.3259-.121 2.4484-.1258.0424.1302.0596.2673.0508.404 0 .5734-.5443 1.0524-1.2387 1.067-.6943.0145-1.2702-.4355-1.2822-1.0089ZM4.88551 21.4742c-.08499.2793-.22297.5397-.40644.7669-.1798.2255-.40477.4109-.66047.5444-.04885.0259-.10593.0315-.15889.0156-.05297-.0158-.09758-.0519-.12419-.1003-.01971-.0351-.02841-.0754-.02495-.1155.00345-.0401.01888-.0783.04429-.1095l.01454-.0218c.15129-.176.28725-.3646.40643-.5637.1143-.1943.20525-.4013.27097-.6169.06739-.2197.11597-.4447.14518-.6726.03145-.2419.04839-.4839.06049-.7089v-.0266c.00154-.027.00838-.0535.02017-.0778.01178-.0244.02826-.0462.04849-.0642.02023-.018.04382-.0318.0694-.0406.02558-.0089.05264-.0126.07965-.0109.03885.0024.07624.0158.10789.0384.03165.0227.05628.0538.07114.0898.10151.265.15478.546.15727.8298.00533.2861-.03551.5713-.12097.8444ZM19.3506 40.6901h-.0726C7.31719 40.4481 8.05024 30.2873 8.05024 30.2873c.07742-5.0442 3.96036-7.7779 7.86016-9.1327l.2298-.0847c.9314-.3338.7693-.8661.0484-.9338l-.554-.0556c-.2248-.0078-.4404-.0914-.6117-.2372-.1713-.1458-.2883-.3453-.3318-.566-.0892-.2999-.0982-.6179-.026-.9222.0722-.3044.2229-.5846.4372-.8124.8637-.9315 2.1774-.9823 3.2902-.1331.1379.104.2807.2056.4234.3048.1516.1031.3308.1582.5141.1582.1833 0 .3625-.0551.5141-.1582.1451-.0943.2855-.2008.4234-.3048 1.1104-.8492 2.4192-.7984 3.2901.1331.2133.2285.3634.5086.4355.8128.0721.3041.0638.6218-.0242.9218-.0436.2207-.1605.4202-.3318.566-.1713.1458-.3869.2294-.6117.2372l-.554.0556c-.7258.0677-.7839.6556.0871.9411l.1911.0629c3.8998 1.3524 7.7827 4.1127 7.8602 9.1472 0 0 .7354 10.185-11.2592 10.4028Zm1.4322-21.3983c.5741-.0508 1.1416-.1602 1.6934-.3266.0557-.0145.2952-.15.271-.3411-.0919-.6-.6701-.6073-1.0596-.4984-.4343.1102-.8244.3508-1.1177.6895-.3242.4258-.0363.5056.2129.4766Zm1.6475 13.9978c-.4839.0314-.9532.1113-1.4298.1354-.1912 0-.3823.017-.5734.0194-.6048 0-1.1032-.0218-1.3523-.0314-.3581-.0146-.7258-.0291-.8589-.0388-.2419-.0169-.4693-.0435-.704-.0725-.4693-.0581-.929-.1718-1.4007-.242-.075 0-.1476.0702-.1645.1791-.0081.0378-.0054.0772.0078.1136.0133.0364.0366.0683.0672.092.2188.1197.45.2155.6894.2855.242.0701.4839.1258.7089.1742.225.0483.4838.0822.7258.1112.2419.0291 1.1297.0605 1.3765.0629.2468.0025.4839.0218.7258 0 .2419-.0217.4838-.0266.7258-.0604.2419-.0339.4838-.0702.7257-.1234.2494-.0564.4925-.1374.7258-.2419.0344-.0202.0627-.0492.0819-.0842.0192-.0349.0285-.0744.027-.1142.0314-.0847-.0266-.1718-.104-.1645Zm3.9022-2.5112c-.4706-.2538-.9659-.4589-1.4782-.6121-.5032-.15-1.0112-.2709-1.5217-.3798-.5104-.1089-1.0257-.1863-1.541-.2419-.5153-.0557-2.4193-.1549-2.9297-.167-.5105-.0121-1.0403-.0556-1.5629-.0411-.5225.0145-1.0427.0436-1.5652.1065-.5226.0629-1.0427.133-1.5629.2419-.5302.1055-1.0487.2627-1.5483.4693-.0713.0423-.1299.103-.1695.1759-.0396.0728-.0588.155-.0555.2378 0 .2419.1282.4089.2903.3992 1.0185-.0556 2.0298-.2105 3.041-.2419.4089-.0145.8153-.0242 1.2242-.0267 1.2773.0315 2.3394.0775 2.874.0992.7621.0388 1.5653.0823 1.8362.1041.5032.0411 1.0016.104 1.5024.1693 1.0016.1331 1.9862.3798 2.9902.5298.1621.0242.3145-.1427.3411-.3701.0204-.0832.0157-.1707-.0136-.2512-.0293-.0805-.0818-.1505-.1509-.2012Zm-8.2424-11.9632c-.2933-.3387-.6834-.5793-1.1177-.6895-.3895-.1089-.9677-.1016-1.062.4984-.0218.1911.2177.3266.2734.3411.5518.1664 1.1193.2758 1.6934.3266.2492.029.5371-.0508.2129-.4766Z" fill="#fff"/></svg>