<svg xmlns="http://www.w3.org/2000/svg" width="517" height="212" fill="none"><g fill="#fff" fill-rule="evenodd" clip-rule="evenodd" opacity=".2"><path d="M77.621 69.89h15.4v7.21H75.434v.379c0 3.795-2.471 4.08-3.327 4.08H31.704c-1.9 0-3.422.19-4.658.664-1.045.38-1.9.948-2.566 1.802a.336.336 0 0 1-.048.142.337.337 0 0 0-.047.143H40.64l-.38.854a13.24 13.24 0 0 0-.855 2.75c-.19.855-.285 1.898-.38 2.942v.664H26.286c0 .5-.022 1.022-.045 1.565-.024.591-.05 1.208-.05 1.85v10.341h11.217v3.321h-3.992v9.582H24.29c0 1.32.102 2.488.194 3.54.033.384.065.753.09 1.108h12.549l.095 1.139c.38 1.612.856 3.036 1.521 3.889.666.949 1.426 1.518 2.472 1.898 1.236.379 2.852.569 4.753.569h26.618c1.141 0 1.521-.38 1.806-.759.191-.38.666-1.518.666-4.364v-1.044H62.6l-.095-7.305h9.127v-4.269H48.626c-.76 0-3.232-.284-3.232-4.079v-1.234h1.996v-.664H38.17v-5.312c0-3.795 2.472-4.08 3.327-4.08h33.558c1.236 0 3.993.474 3.993 4.838v3.226h9.221v3.321h-1.996v9.582H77.05v4.648h12.549v4.649c0 1.802-.095 3.51-.285 5.123v.569H75.339v.664H90.645l-.096.759c-.38 2.562-1.045 4.554-1.996 6.072l-.19.379H75.91c0 .095-.096.19-.191.285-1.996 2.941-4.943 4.459-8.65 4.459H34.461c-4.182 0-7.89-.569-10.932-1.708-1.996-.664-3.898-1.802-5.514-3.225l-1.33-1.139h9.981a9.98 9.98 0 0 0-.428-.522c-.142-.166-.285-.332-.427-.521-.856-1.044-1.521-2.182-2.187-3.511H6.132l-.19-.379a47.03 47.03 0 0 1-.856-2.087l-.285-.854h18.633c-.343-.855-.531-1.71-.704-2.495l-.029-.13-.028-.126c-.38-1.423-.665-3.131-.855-4.934H9.364l-.095-.664c-.19-1.802-.285-3.795-.38-5.882v-.759h9.126v-8.253H5.467v-3.321h5.323v-8.728c0-1.645.08-3.368.166-5.243l.024-.544.095-.57h6.085c.095-1.612.285-3.225.475-4.648H7.938l.19-1.138c.048-.238.096-.499.143-.76.048-.26.095-.521.143-.758.57-2.467 1.426-4.744 2.566-6.831l.19-.285h17.492c.57-.948 1.046-1.707 1.617-2.371.57-.76 1.33-1.518 2.091-2.277H16.78l1.71-1.139c1.236-.854 2.567-1.612 3.993-2.087 3.042-1.138 6.655-1.708 10.933-1.708h40.877c.761 0 3.138.285 3.328 3.7Zm-3.613 63.278H6.703c.095.19.19.379.285.664h66.925c.095-.285.095-.474.095-.664Zm-61.887-26.564H36.077v.664H6.799v-.664h5.323Zm61.982-29.505H11.931c-.95 1.803-1.711 3.89-2.186 6.072l-.286 1.139h13.404c.19-.38.38-.76.57-1.044.761-1.044 1.807-1.803 3.138-2.277 1.426-.474 3.137-.759 5.133-.759h40.403c.951 0 1.996-.474 1.996-2.751v-.38Zm-54.757 41.079h3.613c.095 1.708.19 3.321.285 4.649H10.505c-.095-1.423-.19-2.941-.285-4.649H19.346ZM25.05 91.52H12.311c-.095 1.707-.19 3.415-.19 5.028v8.728H24.86V94.935c0-1.233.095-2.372.19-3.415Zm-5.99-5.977h19.584c-.19.664-.38 1.423-.57 2.181-.095.76-.19 1.519-.285 2.468H18.49c.096-1.613.286-3.226.57-4.65Zm13.025 23.053H19.346v8.254h12.739v-8.254Zm-1.997 32.446h44.205c-1.711 2.277-4.182 3.415-7.224 3.415H34.461c-4.087 0-7.605-.569-10.457-1.612-1.33-.38-2.471-1.044-3.612-1.803h9.696Zm4.183-71.153H76.29c-.095-1.897-1.141-2.372-1.997-2.372H33.416c-4.088 0-7.605.57-10.457 1.613-.57.19-1.141.475-1.712.76h13.024ZM23.15 124.155h12.833c.286 1.898.856 3.415 1.712 4.459.76 1.138 1.806 1.897 3.137 2.372 1.33.474 3.042.664 5.133.664h26.618c1.331 0 2.282-.38 2.852-1.328.666-.949.951-2.657.951-5.123v-1.044h11.883v3.32c0 1.518-.095 3.036-.19 4.365H24.86c-.294-.807-.531-1.614-.756-2.377-.065-.224-.13-.444-.195-.659a47.586 47.586 0 0 1-.76-4.649Zm50.574 11.005H25.145c.475.949 1.046 1.898 1.616 2.656.57.665 1.14 1.234 1.806 1.898H87.602c.666-1.233 1.141-2.751 1.521-4.554h-15.4Zm3.232-64.037H91.69v4.648H30.279c.285-.569.665-1.138.95-1.518.95-1.233 2.092-2.182 3.327-3.13h42.399Zm-28.9 34.153h29.661v-3.226c0-2.371-.856-3.51-2.662-3.51H41.496c-.95 0-1.996.474-1.996 2.751v3.985h8.556Zm24.812 6.356-.19-.379H48.626c-.856 0-1.901-.475-1.996-2.657H84.94v8.254H72.963c0-4.945 0-5.117-.086-5.208l-.005-.005-.005-.005Zm4.849-5.028H48.721v.664h38.216v-.664h-9.221Zm-1.902 11.574v4.649H63.836v-4.649H75.814ZM159.946 78.808h-5.989v-.57c-.095-.38-.095-.569-.095-.759v-5.882h10.648v-.569h-10.648v-.949c0-3.7 2.567-4.079 3.328-4.079h54.567c.76 0 3.232.285 3.327 3.7h10.647v3.225h-10.647v4.554h5.989l-.095.76c-.285 2.371-1.901 3.225-3.232 3.225l-54.662-.095c-.666 0-2.567-.19-3.138-2.561Zm5.229-9.108H213.753c-.095-1.897-1.141-2.372-1.996-2.372H157.19c-.856 0-1.902.475-1.997 2.372h9.982Zm-4.088 7.78h-5.894v-4.554H213.753v4.553h-52.666Zm62.648 51.988h-3.423c.191.475.286 1.139.286 1.993v5.597h7.89v3.226H220.788v1.518c0 2.941-1.807 3.984-3.423 3.984h-33.748c-4.277 0-7.89-.569-10.932-1.708-2.377-.853-4.563-2.181-6.369-3.984l-1.141-1.139h7.89l-.285-.284c-.059-.059-.081-.117-.112-.198a1.97 1.97 0 0 0-.078-.182h-7.89l-.19-.284c-1.712-2.372-3.043-5.408-3.803-8.918l-.19-.759.76-.19h7.51c-.053-.403-.115-.814-.178-1.233-.158-1.058-.324-2.165-.392-3.321h-7.795l-.095-.569c-.095-1.613-.19-3.225-.286-4.933v-.664h9.317v-1.138h-9.317l.096-3.511h5.703v-.569h-5.799l.096-7.02 4.373-.095c.047-.19.118-.403.19-.617.071-.213.142-.427.19-.617h-4.468l.665-1.138c0-.047.024-.095.048-.142a.335.335 0 0 0 .047-.143c1.521-2.561 4.088-4.08 7.035-4.364l49.148-.095c.761 0 3.233.285 3.233 3.985v.569h4.468v3.985h-4.468v2.941c0 .474 0 .948-.095 1.423h5.989l-.571.948c-.76 1.424-2.186 1.518-2.757 1.518h-41.828v.095l-.095.664h-5.704v.949h35.079v3.7h-35.174V119.697c.047.19.071.427.095.664.024.237.048.474.095.664.095.474.19.854.285 1.233h7.7l.191.475c.285.948.57 1.707 1.045 2.276.666.854 1.426 1.519 2.567 1.898 1.141.379 2.757.569 4.658.569h33.463c.57 0 1.426.095 2.281.759l1.331 1.233h-5.418Zm-62.458-50.66h58.18c-.285 1.043-1.141 1.328-1.711 1.328l-54.662-.095c-.666 0-1.426-.19-1.807-1.233Zm5.229 32.066h52.571c.022-.09.05-.184.079-.284.095-.325.206-.704.206-1.139v-2.941H161.467l-.095 4.364h5.134Zm4.183 4.174h-9.317v-.949h12.834v.949h-3.517Zm-1.902 7.21H174.586a11.836 11.836 0 0 1-.142-.474c-.048-.166-.095-.332-.143-.474-.047-.237-.071-.498-.095-.759-.024-.261-.047-.522-.095-.759v-1.044h-12.739c.095 1.233.191 2.372.286 3.51h7.129Zm1.712 7.21h48.197c.381.38.666 1.044.666 1.993v5.597h-53.997c-1.426-2.087-2.472-4.649-3.232-7.59h8.366Zm-4.564-26.943h53.427v-.569c0-2.182-1.141-2.656-1.997-2.656l-49.053.095a7.702 7.702 0 0 0-5.609 3.13h3.232Zm-.095-31.497h58.56v.57H165.84v-.57Zm53.522 32.825h-53.046l-.129.312c-.143.341-.273.65-.347 1.017H223.735v-1.329h-4.373Zm-52.191 8.349h13.119c-.144.072-.179.199-.229.38-.016.057-.033.121-.056.189h-12.834v-.569Zm52.286 28.082h-50.955c1.331 1.138 2.947 1.992 4.658 2.561 2.852 1.044 6.37 1.613 10.458 1.613h33.747c.951 0 2.092-.474 2.092-2.656v-1.518Zm-49.909-16.698h13.119c.285.854.665 1.613 1.141 2.183.76 1.138 1.806 1.897 3.137 2.371h-16.732c-.285-1.328-.57-2.846-.665-4.554Zm4.658-7.304h-3.517v1.138H209.285v-1.138h-35.079Zm.095 22.009h52.856v.665h-52.285a4.084 4.084 0 0 1-.571-.665ZM363.479 77.384h8.937v6.072h-10.458v5.502H368.518v17.551h3.802v3.605H364.335v11.1H361.483v5.598h8.936v5.977c0 1.992-.095 3.7-.38 5.218l-.095.569h-7.795l-.026.1-.015.058-.018.068c-.072.272-.132.497-.132.722h1.046l-.285.854c-.285 1.044-.665 1.803-1.141 2.372-1.521 1.992-3.802 2.941-6.749 2.941h-6.94a30.03 30.03 0 0 1-3.327-.19 7.512 7.512 0 0 1-2.852-1.138c-.761-.569-1.521-1.328-2.282-2.277-.285-.38-.57-.759-.855-1.233h-5.229l-.19-.285a13.211 13.211 0 0 1-1.426-2.087l-.856-1.234h12.454l-5.229-9.107h-8.936l-4.563-8.159h2.852l-6.274-11.195h6.179l-.57-.948h-1.997l-9.886-17.551h-2.377v16.222H319.465v3.605H308.342v9.867h5.324v18.595h-6.655v.948h7.7v2.277c0 3.605-2.566 3.89-3.327 3.89h-8.461c-.855 0-3.422-.285-3.422-3.89v-.948h-7.7v-3.606h6.654v-9.107h-8.46v-8.159h3.137v-9.867h-1.806v-3.605h5.989V90.287h-6.56v-8.16h5.894v-3.415h-5.419v-.664c.096-3.036.381-5.407 1.046-7.115l.19-.38h7.035c.285-.569.57-1.043.856-1.423 1.521-1.992 3.707-2.94 6.654-2.94h7.13c1.331 0 2.567.094 3.517.19a7.05 7.05 0 0 1 2.852 1.233c.856.569 1.521 1.328 2.282 2.371l.57.854.666 1.044h-7.13c.285.474.57.948.855 1.518l2.282 3.984h5.419l3.422 6.072h-5.894l3.137 5.502H332.679l9.886 17.551H344.562l1.996 3.605h-6.179l5.989 10.721v-.854h2.852v-9.867h-.761v-3.605h5.039V90.287h-14.355v-8.16h13.594v-3.415h-5.418v-8.159h7.034v-.474c0-2.846 1.711-3.89 3.328-3.89h8.46c1.616 0 3.328 1.044 3.328 3.89v1.803H362.434v5.502h1.045Zm-56.468 43.83h-15.685v5.598h8.46v10.435h12.549v-16.033h-5.324Zm17.587-32.256h-32.512v-5.502h29.375l3.137 5.502Zm-27.283-11.574H318.514l-1.901-3.32c-.476-.854-.856-1.518-1.236-2.182h-21.96c-.475 1.328-.761 3.225-.856 5.502h4.754Zm1.33 30.453H318.134v.949h-25.478v-.949h5.989Zm7.035 31.687v-.948h-12.548v.948h12.548Zm-11.217-29.41h12.548v9.867h-12.548v-9.867Zm25.192-31.402H297.98v3.415h28.615l-1.902-3.415h-5.038Zm-21.01 11.574h12.549v16.223h-12.549V90.286Zm7.035 50.566h-4.848v.949c0 2.182 1.141 2.562 2.091 2.562h8.461c.856 0 1.997-.38 1.997-2.562v-.949H305.68Zm-4.468-70.63a4.92 4.92 0 0 0 .19-.333c1.236-1.613 3.137-2.372 5.609-2.372h7.13c1.331 0 2.377.095 3.232.19.951.19 1.711.475 2.377.949.665.474 1.236 1.138 1.806 1.897h-20.534c.048-.095.119-.213.19-.332Zm25.953 36.287H341.044l-9.126-16.223H316.423l9.126 16.223h1.616Zm14.355 13.472h-12.549l-5.609-9.867h15.496l5.514 9.867H341.52Zm-2.662 6.831h6.559l-3.137-5.598h-15.4l3.042 5.598h8.936Zm-10.552-18.975h15.495l.475.949h-15.4l-.57-.949Zm32.512 30.739H333.344c.19.379.38.664.665.948H360.532c.096-.284.191-.569.286-.948Zm-.666-10.436h8.936v4.648c0 1.708-.095 3.226-.285 4.459h-24.051l-5.134-9.107h20.534Zm.951 12.712H340.189c.047.095.095.166.142.238.048.071.095.142.143.237.665.854 1.331 1.518 1.996 1.992.666.38 1.426.759 2.282.854.855.19 1.901.19 3.137.19h6.94c2.566 0 4.468-.759 5.703-2.372.191-.285.381-.664.571-1.139Zm-7.035-57.396h6.56v5.502H340.379v-5.502h13.689Zm-7.7 37.758h-2.567l2.567 4.649v-4.649Zm4.183 0h9.601v5.598h-12.453v-5.598h2.852Zm2.852-43.83h7.7v-5.502h-12.454v5.502h4.754Zm1.331 30.453h16.256v.949h-21.2v-.949h4.944Zm8.27 2.277h-12.453v9.867H363.004v-9.867Zm-1.901-31.402h9.982v3.415h-17.017v-3.415h7.035Zm-.475 11.574h-5.894v16.223h12.453V90.286H360.628Zm-4.944-19.733v-.474c0-2.087 1.141-2.562 1.997-2.562h8.46c.951 0 1.997.475 1.997 2.562v.474h-12.454ZM510.639 83.93c.761 3.605 1.046 7.874 1.046 12.618v5.692h-5.133v.949h3.612v11.195h1.521v.948c0 2.277-.095 4.459-.19 6.641l-.095.57h-2.852c-.19 2.466-.57 4.648-.951 6.546a34.9 34.9 0 0 1-1.045 3.51l-.095.379h-3.708c-.19.38-.285.664-.38 1.044H508.548l-.38.949c-.761 1.423-1.426 2.656-2.282 3.7-.951 1.233-2.186 2.371-3.612 3.415l-.19.095h-5.134c-1.236.759-2.567 1.423-3.898 1.897-3.042 1.139-6.749 1.613-10.932 1.613h-23.196c-4.278 0-7.89-.474-10.932-1.613a15.702 15.702 0 0 1-3.993-1.992l-1.711-1.233h5.324c-.761-.664-1.521-1.423-2.092-2.182-.76-.949-1.426-2.088-2.091-3.321h-8.746l-.19-.379c-.118-.313-.252-.626-.388-.945a18.68 18.68 0 0 1-.563-1.427l-.285-.854h6.179c-.285-.949-.475-1.802-.665-2.656-.476-1.898-.761-4.08-1.046-6.546h-2.947v-.57a75.987 75.987 0 0 1-.285-6.641v-.948h3.422v-9.867h-4.468v-3.605h6.845v-4.364c0-4.364.38-8.349.95-11.764h-6.939l.285-1.233c0-.157.029-.285.054-.4.022-.094.041-.179.041-.264.475-2.088 1.141-4.08 2.091-5.977l.19-.285h4.373c.666-1.328 1.331-2.371 1.997-3.225.38-.475.76-.95 1.236-1.329l.19-.19h5.228c1.711-1.802 3.803-3.13 6.179-3.984 3.042-1.138 6.75-1.708 10.933-1.708h23.196c4.277 0 7.89.57 10.932 1.708a15.873 15.873 0 0 1 6.559 4.174l1.046 1.139h-5.228s.095.095.095.19c.855.948 1.521 2.087 2.186 3.51l.475.949h-4.468c.761 1.612 1.236 3.32 1.617 5.028.095.19.095.38.095.569h6.939l.095.474ZM438.58 103.19H473.374v-.949h-38.596v.949h3.802Zm2.757 29.789h59.986c-.095.19-.166.356-.238.522a9.168 9.168 0 0 1-.237.522h-65.31a3.25 3.25 0 0 0-.19-.522 3.453 3.453 0 0 1-.19-.522h6.179Zm-2.947-11.764h10.362c-.095-1.328-.19-2.656-.19-4.174v-1.328H435.824c0 1.897 0 3.7.19 5.502h2.376Zm4.468-37.758h-6.939v-.285c.475-1.897 1.045-3.605 1.806-5.313H500.467c.761 1.708 1.331 3.416 1.807 5.313v.285h-13.69c0-.048-.023-.071-.047-.095-.024-.024-.048-.047-.048-.095-.76-1.044-1.806-1.803-3.137-2.277-1.426-.474-3.137-.759-5.133-.759h-22.245c-1.997 0-3.803.285-5.134.76-1.331.474-2.376 1.233-3.137 2.276 0 .047-.024.071-.048.095-.023.024-.047.047-.047.095h-6.75Zm64.359 39.086h-12.739c-.095.569-.19 1.139-.285 1.613-.285 1.898-.855 3.415-1.616 4.459-.855 1.138-1.901 1.897-3.232 2.372-1.331.379-3.042.664-5.134.664h-22.15c-2.091 0-3.802-.285-5.133-.664-1.331-.475-2.377-1.234-3.137-2.372-.856-1.044-1.426-2.561-1.711-4.459-.095-.474-.19-1.043-.286-1.613h-12.738c.285 2.372.57 4.459.95 6.262.191.948.476 1.897.856 2.941H505.506l.185-.669c.22-.788.427-1.53.575-2.272.476-1.803.761-3.89.951-6.262Zm-58.655-8.159h-9.316v-9.866h12.739v9.866h-3.423Zm7.225-29.6h-13.214c-.57 3.321-.95 7.306-.95 11.765v4.364h12.833v-5.977c0-2.846.095-5.218.476-7.115.19-1.139.475-2.182.855-3.036Zm44.11-8.158h-57.039c.476-.949.951-1.803 1.521-2.467.092-.091.184-.193.279-.298.2-.22.414-.457.672-.65h56.468l.951.948c.143.229.294.457.449.69.361.543.74 1.114 1.072 1.777h-4.373Zm.38 58.725H444.95c.475.854 1.045 1.802 1.616 2.466a13.589 13.589 0 0 0 3.137 3.036H501.703a13.589 13.589 0 0 0 3.137-3.036c.571-.759 1.141-1.517 1.616-2.466h-6.179Zm-48.673 6.83h42.684c-.285.095-.57.214-.855.332-.285.119-.571.238-.856.333-2.852 1.043-6.369 1.518-10.457 1.518h-23.196c-4.088 0-7.605-.475-10.457-1.518-.57-.19-1.141-.38-1.711-.665H451.604Zm37.171-37.663v-3.605h7.51v-5.977c0-2.751-.191-5.123-.476-6.925-.285-1.329-.57-2.372-1.045-3.226h-6.94l-.285-.57c-.095 0-.095-.094-.095-.19-.666-.853-1.521-1.422-2.567-1.802-1.236-.474-2.757-.664-4.658-.664h-22.245c-1.902 0-3.518.19-4.659.664-.855.285-1.521.665-1.996 1.234h6.75l-.571.948c-.57.95-1.045 2.182-1.236 3.606-.38 1.802-.57 4.174-.57 6.925v5.977h19.013v3.605h-21.39v11.195H449.893v1.328c0 1.423 0 2.846.19 4.174h2.947l.095.569c0 .759.095 1.518.19 2.088.381 1.707.856 3.035 1.521 3.984.571.854 1.426 1.518 2.472 1.897 1.236.38 2.852.57 4.753.57h22.15c1.997 0 3.518-.19 4.754-.57 1.045-.379 1.901-1.043 2.471-1.897.666-.949 1.236-2.277 1.521-3.984.095-.57.19-1.329.286-2.088v-.569h2.851c.191-1.233.191-2.656.191-4.174v-1.328h-5.134v-11.195h-2.376Zm11.692-32.635h-48.578c1.426-1.234 3.043-2.088 4.754-2.752 2.852-1.138 6.369-1.613 10.457-1.613h23.196c4.087 0 7.605.475 10.552 1.613 1.711.664 3.327 1.518 4.753 2.752h-5.134Zm4.849 30.358H490.105v.949H505.316v-.949Zm-12.834 2.277h16.351v9.866h-16.351v-9.866Zm17.872-7.97c0-4.458-.285-8.443-.855-11.763H496.19c.38.854.665 1.897.95 3.036.285 1.897.476 4.269.476 7.115v5.977H510.354v-4.364Zm-12.739 19.165h12.739c0 1.897 0 3.7-.19 5.502h-12.739c.095-1.328.19-2.656.19-4.174v-1.328Z"/></g><path fill="#fff" fill-rule="evenodd" d="M165.46 77.48c.285 2.276 1.902 2.56 2.662 2.56l53.426.096c.666 0 2.282-.38 2.567-2.657h-4.753c0-.085.019-.17.04-.264.026-.115.055-.243.055-.4v-5.218h4.658V69.7h-4.658v-.38c0-2.94-1.901-3.32-2.662-3.32h-49.909c-.855 0-2.662.38-2.662 3.415v.285h5.894v1.897h-5.894v5.218c0 .19 0 .475.096.664h1.14Zm-47.722 27.796h-14.545v-3.889c0-3.605-2.091-4.175-3.327-4.175H70.871c-.76 0-2.662.38-2.662 3.416v4.648h4.563v1.993h-1.996v.569c0 3.036 1.806 3.415 2.567 3.415H97.014s.095 2.657.095 5.598H83.42c0 1.189.028 2.407.054 3.515.021.923.041 1.771.041 2.461h16.921c0 1.044.095 1.708.095 1.708 0 2.941-.475 4.174-.855 4.744-.476.759-1.236 1.043-2.377 1.043H64.882c-1.996 0-3.707-.19-4.943-.664-1.236-.379-2.092-1.044-2.852-2.087-.666-.949-1.236-2.372-1.521-4.174-.095-.19-.095-.38-.095-.57h-6.655c-.285-1.612-.38-3.605-.38-5.976h6.56V105.276h-4.659V94.271c0-1.518 0-2.846.095-4.08h23.861c.095-1.138.191-2.086.381-3.035.19-1.138.475-2.087.855-2.846H48.056c.13-.324.304-.648.462-.942.073-.136.143-.266.203-.386.76-.949 1.711-1.613 2.852-2.087 1.33-.38 2.947-.664 4.943-.664H96.92c.76 0 2.662-.285 2.662-3.32v-1.14h8.365V69.89h-6.274v-.38c0-2.94-1.806-3.32-2.567-3.32H64.407c-4.183 0-7.796.569-10.743 1.612-1.425.57-2.661 1.234-3.802 2.088h9.221a14.248 14.248 0 0 0-3.517 3.225c-.666.854-1.236 1.708-1.711 2.657h-9.222c-1.045 1.897-1.901 4.08-2.471 6.64-.095.57-.19 1.234-.286 1.898h1.331c-.285 1.802-.57 3.7-.665 5.882h-1.426c-.095 1.803-.19 3.7-.19 5.692v11.385h2.471v7.399c0 .393.026.785.05 1.164.023.355.045.698.045 1.019h-2.566c.095 2.182.19 4.079.38 5.976H47.2c.19 1.993.475 3.795.856 5.503.285 1.233.665 2.372 1.045 3.51h-5.894l.856 1.992h4.753c.666 1.423 1.331 2.657 2.282 3.795.57.759 1.236 1.423 1.996 2.087h-4.753c1.52 1.329 3.327 2.372 5.323 3.131 2.947 1.044 6.56 1.613 10.743 1.613h27.378c3.518 0 6.275-1.423 8.176-4.174.095-.19.19-.38.38-.57h13.024c.855-1.518 1.521-3.415 1.901-5.882H99.295l.286-1.992h7.985c.19-1.518.285-3.131.285-5.028v-3.985h-6.654v-5.976h16.541v-11.575Zm105.521 22.864c.571.474 1.046 1.234 1.046 2.657v6.261h3.327v1.897H224.4v2.182c0 2.088-.95 2.846-1.806 3.131h-31.371c-4.183 0-7.796-.474-10.743-1.613-2.281-.759-4.277-2.087-5.989-3.7h4.373c-.475-.474-.855-.854-1.235-1.328a1.588 1.588 0 0 1-.256-.374c-.046-.084-.085-.156-.125-.195h-4.373c-1.711-2.372-3.042-5.313-3.802-8.918h4.848c-.38-1.802-.665-3.7-.856-5.882h-9.411c-.029-.516-.066-1.042-.104-1.578-.089-1.237-.181-2.535-.181-3.924l-.095-.475.095-3.51h7.415v-1.897h-2.852l.095-6.546c.19-.854.475-1.613.951-2.372 1.236-2.087 3.232-3.416 5.513-3.89l47.152-.095c.761 0 2.662.38 2.662 3.321v7.495c0 .948-.19 1.612-.475 2.087h2.757c-.571.854-1.521 1.043-2.092 1.043h-42.494v.854h-2.851c0 1.803-.095 6.072-.095 6.072.047.284.071.569.095.854.023.284.047.569.095.853a8.95 8.95 0 0 0 .475 1.708h2.852c.285.949.665 1.708 1.046 2.372.76.949 1.711 1.613 2.947 2.087 1.235.38 2.947.664 4.943.664h2.377c.76.095 1.616.095 2.471.095h29.47c.38.095.761.285 1.046.664h-3.613Zm126.912-57.586h-3.993v6.83h8.366v4.744h-8.841v6.83h4.468v19.829h-2.092v11.194h-2.852v6.831h4.944v5.408c0 1.897-.095 3.605-.286 5.028h-3.802c-.19.854-.38 1.612-.666 2.277h1.046c-.285.853-.57 1.612-1.046 2.182-1.331 1.802-3.422 2.751-6.179 2.751h-4.088c-1.331 0-2.376-.095-3.232-.285-.95-.189-1.806-.474-2.567-1.043-.76-.475-1.426-1.139-2.091-2.087-.665-.854-1.426-1.993-2.282-3.511l-.095-.284h3.898l-5.894-10.436h-14.545l-10.172-18.025h14.735l-1.331-2.277h-1.996l-9.887-17.551h-1.996l-2.757-4.744c-.19-.285-.285-.285-.285-.285h-.475V108.787h-2.092v11.194h2.092v17.267h-3.423v2.277h3.423v1.612c0 2.941-1.902 3.321-2.662 3.321h-4.183c-.856 0-2.757-.38-2.757-3.321v-1.612h-4.278v-2.277h3.232v-10.436h-3.232V106.51h2.092V88.959h-2.092v-6.831h1.426v-4.744h-1.426c.095-2.94.475-5.218 1.046-6.83h3.042c.285-.664.57-1.234.856-1.708 1.425-1.708 3.517-2.656 6.274-2.656h3.992c1.331 0 2.472.095 3.423.19.95.19 1.901.569 2.662 1.138.665.474 1.331 1.233 1.996 2.182l.57.854h-3.992c.475.759.95 1.518 1.426 2.561l2.471 4.27h22.245l2.662 4.743h-22.72l3.897 6.83h4.468l11.123 19.829h-2.091l6.274 11.194h-2.852l3.612 6.451c.095.285.19.285.286.285h.475V119.981h.57l3.613 6.451c.19.285.285.285.285.285h.57V106.51h2.092V88.959h-2.092v-6.831h1.331v-4.744h-1.331v-6.83h2.947V69.51c0-3.036 1.902-3.32 2.662-3.32h5.514c.76 0 2.567.284 2.567 3.32v1.044Zm124.249 30.358v2.277h1.616v11.479c0 5.313-.38 9.867-1.236 13.567-.285 1.233-.57 2.372-.951 3.51h-3.137l-.855 2.277h3.042c-.666 1.328-1.331 2.467-2.187 3.605-.95 1.233-2.186 2.277-3.517 3.226h-1.996c-1.141.759-2.472 1.518-3.898 1.992-2.947 1.044-6.559 1.613-10.742 1.613h-21.105c-4.182 0-7.795-.569-10.742-1.613-1.426-.474-2.662-1.233-3.898-1.992h3.233c-1.331-.949-2.567-1.992-3.518-3.321-.855-1.043-1.521-2.182-2.186-3.51h-3.137c-.381-.759-.666-1.518-.951-2.277h.665c-.38-1.138-.76-2.277-1.045-3.51-.476-1.992-.761-4.364-1.046-7.02h-.57c-.191-1.993-.286-4.175-.286-6.547v-.284h1.046v-11.195h-1.046v-2.277h3.518v-5.028c0-4.743.38-8.918 1.046-12.428h-3.518c.095-.38.19-.759.19-1.043.571-2.182 1.236-4.08 2.092-5.787h.95c.571-1.329 1.331-2.467 2.092-3.51.38-.475.76-.854 1.14-1.234h5.229c1.711-1.803 3.803-3.13 6.179-4.08 2.947-1.043 6.56-1.612 10.743-1.612h16.921c4.183 0 7.795.569 10.742 1.612 3.042 1.139 5.514 2.941 7.415 5.313.856 1.044 1.521 2.182 2.092 3.51h-3.423c.856 1.708 1.521 3.606 1.997 5.788.05.15.074.329.099.52.023.167.046.345.091.523h3.422c.666 3.51 1.046 7.685 1.046 12.428v5.028h-1.616Zm-9.507-13.661c.381 1.897.571 4.27.571 7.02v6.641h-3.137v13.472h3.137v1.992c0 1.803-.095 3.416-.285 4.839h-2.852c-.095.759-.19 1.518-.286 2.182-.285 1.707-.855 3.225-1.521 4.174a5.609 5.609 0 0 1-2.851 2.087c-1.331.475-2.947.664-4.944.664H429.93c-1.997 0-3.708-.189-4.944-.664-1.235-.379-2.091-1.043-2.852-2.087-.665-.949-1.235-2.467-1.521-4.174a8.075 8.075 0 0 1-.285-2.182h-6.844c-.191-1.423-.191-3.036-.191-4.839v-1.992h6.75V94.271c0-2.75.19-5.123.57-7.02.286-1.613.666-2.846 1.331-3.795h-3.422c0-.139.051-.227.115-.338.024-.041.05-.085.075-.136.761-.949 1.616-1.613 2.852-2.087 1.331-.38 2.947-.664 4.943-.664h25.573c1.996 0 3.707.284 4.943.664 1.236.474 2.092 1.138 2.852 2.087.026.05.051.095.075.136.064.111.115.2.115.338h3.518c.665.949 1.045 2.277 1.33 3.795Z" clip-rule="evenodd"/><path fill="#231F20" d="M235.456 139.886c.067.066-.028.218-.285.474a46.701 46.701 0 0 1-5.133 4.743 90.108 90.108 0 0 1-5.799 4.27 114.868 114.868 0 0 1-9.079 5.644c-3.013 1.68-5.78 2.828-8.318 3.463-.504.124-1.074.275-1.711.427-.637.161-1.255.285-1.854.38-.599.094-1.141.17-1.616.237-.475.066-.808.066-.998 0-.504-.124-.827-.408-.951-.854-.123-.437-.028-.854.285-1.233.124-.19.552-.475 1.284-.854.732-.38 1.217-.636 1.473-.759.067-.057.266-.171.618-.332a21.92 21.92 0 0 0 1.141-.569c.409-.219.827-.437 1.236-.665.409-.218.741-.427.998-.616a39.174 39.174 0 0 0 3.708-2.894 78.431 78.431 0 0 0 3.659-3.415 167.601 167.601 0 0 0 3.423-3.51 99.736 99.736 0 0 0 2.994-3.273 77.041 77.041 0 0 0 4.278-6.214c1.398-2.249 2.538-4.383 3.423-6.404-1.645.256-3.489.996-5.514 2.229-2.025 1.234-4.154 2.78-6.369 4.649a102.797 102.797 0 0 0-6.75 6.261 169.04 169.04 0 0 0-12.263 13.852c-1.778 2.248-3.261 4.25-4.468 6.024a9288.546 9288.546 0 0 1-7.701 11.242c-2.538 3.7-5.133 7.447-7.795 11.242a1195.681 1195.681 0 0 1-8.128 11.622 221.53 221.53 0 0 1-8.603 11.337c-.637.759-1.265 1.518-1.902 2.277a16.69 16.69 0 0 1-2.091 2.087c-.19.123-.475.303-.856.522-.38.218-.637.076-.76-.427-.067-.313-.029-.664.095-1.044.124-.379.257-.73.38-1.043.257-.636.504-1.253.761-1.85.256-.598.542-1.186.855-1.756a118.926 118.926 0 0 1 6.227-10.957c2.253-3.51 4.487-7.039 6.702-10.578a798.483 798.483 0 0 1 5.134-7.874 461.793 461.793 0 0 1 5.323-7.875 341.098 341.098 0 0 0 3.327-4.743 271.534 271.534 0 0 1 3.993-5.645c1.398-1.926 2.776-3.823 4.135-5.692 1.36-1.86 2.586-3.539 3.66-5.028 1.075-1.49 2.282-3.15 3.613-4.981 1.454-1.831 2.785-3.51 3.993-5.028a129.602 129.602 0 0 0 2.994-3.653c.922-1.167 1.54-1.916 1.854-2.229l.808-.807 1.616-1.612a26.947 26.947 0 0 1 1.949-1.755c.694-.57 1.302-.978 1.806-1.234.447-.256.789-.313 1.046-.189.314.123.409.407.285.853a23.368 23.368 0 0 1-.856 2.846 19.753 19.753 0 0 1-1.093 2.372 40.094 40.094 0 0 1-1.331 2.277l-1.663 2.657c.313-.314.618-.589.903-.807a8.22 8.22 0 0 0 .808-.711c2.538-2.334 4.962-4.232 7.272-5.693 2.31-1.451 4.402-2.561 6.274-3.32 1.873-.759 3.489-1.215 4.849-1.376 1.359-.161 2.329-.114 2.899.142.951.446 1.407 1.215 1.379 2.325-.029 1.11-.362 2.372-.998 3.795-.637 1.423-1.445 2.941-2.425 4.553a72.731 72.731 0 0 1-2.994 4.554 94.588 94.588 0 0 1-2.757 3.7c-.827 1.044-1.359 1.727-1.616 2.04l-1.996 2.372a639.743 639.743 0 0 1 5.513-3.748 64.566 64.566 0 0 1 5.799-3.462c.124-.124.456-.313.998-.57.542-.256.846-.313.903-.189Z"/><path fill="#231F20" fill-rule="evenodd" d="M260.791 141.024a63.186 63.186 0 0 0 1.759-1.898c.504-.569.703-.92.57-1.043a64.21 64.21 0 0 0-3.184 2.229c-.79.598-1.541 1.158-2.234 1.661-.694.502-1.113.787-1.236.853a542.345 542.345 0 0 0-5.894 3.843 147.853 147.853 0 0 1-6.56 4.079 45.477 45.477 0 0 1-6.654 3.226c-2.215.853-4.25 1.28-6.084 1.28a18.324 18.324 0 0 1 3.042-6.071c2.595-.693 4.914-1.471 6.939-2.325a60.01 60.01 0 0 0 6.084-2.988 34.8 34.8 0 0 0 7.701-6.262 40.68 40.68 0 0 0 1.616-1.897c.504-.636 1.017-1.3 1.521-1.992 1.074-1.641 1.682-3.245 1.806-4.791.124-1.547-.57-2.77-2.091-3.653a5.09 5.09 0 0 0-2.472-.521 8.582 8.582 0 0 0-2.472.426 28.47 28.47 0 0 0-4.753 1.945 34.233 34.233 0 0 0-4.373 2.704 61.331 61.331 0 0 0-4.183 3.178 46.218 46.218 0 0 0-3.802 3.558 69.847 69.847 0 0 0-6.56 8.254c-1.968 2.912-3.137 6.166-3.517 9.771-.19 1.642.304 2.96 1.473 3.937 1.17.978 2.52 1.471 4.041 1.471a13.78 13.78 0 0 0 5.133-1.186 49.489 49.489 0 0 0 4.753-2.419c3.166-1.774 6.084-3.719 8.746-5.835a226.314 226.314 0 0 0 7.796-6.498c.123-.124.503-.494 1.14-1.091a62.522 62.522 0 0 0 1.949-1.945Zm-23.481 3.985c.352-.503.837-1.11 1.474-1.803a158.253 158.253 0 0 1 8.08-8.064 35.638 35.638 0 0 1 9.126-6.167 23.869 23.869 0 0 1-3.184 6.167 29.95 29.95 0 0 1-4.658 5.123 30.453 30.453 0 0 1-5.704 3.937 28.785 28.785 0 0 1-6.322 2.514c.259-.368.499-.715.723-1.039l.465-.668Z" clip-rule="evenodd"/><path fill="#231F20" d="M353.051 93.399c2.472-.19 3.708-.19 3.708 0 .066.066-1.141.35-3.613.854-1.14.256-2.547.522-4.23.806-1.683.285-3.565.617-5.656.996-5.581.883-10.98 1.755-16.209 2.61-5.228.853-10.79 1.726-16.684 2.608-2.918.446-5.751.854-8.508 1.234-2.757.379-5.438.73-8.033 1.043a534.325 534.325 0 0 1-5.086 7.495 288.133 288.133 0 0 1-2.994 4.269 607.785 607.785 0 0 1-7.083 9.724c-2.376 3.197-4.772 6.404-7.177 9.63a1150.103 1150.103 0 0 0-5.989 7.921 296.782 296.782 0 0 0-5.799 8.017 204.471 204.471 0 0 1 6.75-4.601c2.281-1.48 4.591-2.96 6.939-4.412a20.988 20.988 0 0 1 1.521-.854c.504-.256 1.018-.502 1.521-.759.571-.256.856-.313.856-.189 0 .189-.361.616-1.093 1.28a52.363 52.363 0 0 1-2.519 2.135c-.951.759-1.873 1.47-2.757 2.134-.884.665-1.493 1.12-1.807 1.376-1.644 1.328-3.298 2.656-4.943 3.985a146.273 146.273 0 0 0-4.943 4.174 29.64 29.64 0 0 0-1.854 1.613 84.687 84.687 0 0 1-1.854 1.708 9.277 9.277 0 0 1-1.616 1.138c-.57.313-1.236.351-1.996.095-.884-.313-1.445-.788-1.664-1.423-.219-.636-.238-1.328-.047-2.087.19-.759.494-1.499.903-2.23.408-.73.779-1.337 1.093-1.85a65.503 65.503 0 0 1 1.901-3.036c.637-.948 1.303-1.926 1.997-2.941a294.796 294.796 0 0 1 7.367-10.53c2.5-3.416 4.991-6.897 7.463-10.436.694-.949 1.635-2.21 2.804-3.795 1.169-1.584 2.443-3.292 3.803-5.123a539.529 539.529 0 0 1 4.325-5.74c1.521-1.992 2.976-3.908 4.373-5.739a184.44 184.44 0 0 0-4.753.474c-1.711.19-3.423.351-5.134.474a377.06 377.06 0 0 1-4.943.332 70.952 70.952 0 0 1-4.183.143c-2.538 0-3.802-.218-3.802-.664-.067-.19.218-.408.855-.664.637-.256 1.521-.541 2.662-.854 3.289-.949 6.94-1.679 10.932-2.182 3.993-.503 7.957-1.11 11.883-1.803a204.442 204.442 0 0 0 2.852-3.7c.761-1.015 1.236-1.613 1.426-1.802a1598.82 1598.82 0 0 1 7.463-9.298 99.498 99.498 0 0 1 8.033-8.823c.066-.066.237-.218.523-.474.285-.256.57-.455.855-.617.285-.16.504-.208.666-.142.161.067.142.313-.048.76a51.85 51.85 0 0 1-2.709 5.217 163.771 163.771 0 0 1-3.232 5.17 341.552 341.552 0 0 1-3.85 5.788 686.82 686.82 0 0 0-4.659 6.972c2.025-.256 4.117-.493 6.275-.711 2.158-.218 4.344-.455 6.559-.712 5.894-.569 11.474-1.119 16.731-1.66 5.257-.54 10.714-1.062 16.352-1.565 2.157-.19 4.068-.351 5.751-.475a139.82 139.82 0 0 1 4.325-.284Z"/><path fill="#231F20" d="M295.822 125.845a3.21 3.21 0 0 1-.38 1.897 6.965 6.965 0 0 1-1.188 1.565c-.476.475-.989.93-1.521 1.376-.542.446-.97.949-1.284 1.518a23.676 23.676 0 0 0-1.663 3.415 54.767 54.767 0 0 0-1.284 3.605c-.38 1.329-.741 2.609-1.093 3.843a113.442 113.442 0 0 0-.998 3.747 21.69 21.69 0 0 1-2.947 6.262c-1.331 1.963-3.014 3.481-5.038 4.553-2.406 1.205-4.782 1.708-7.13 1.518-1.265-.189-2.31-.531-3.137-1.043-.067 0-.257-.095-.571-.285-.313-.19-.646-.379-.998-.569-.352-.19-.637-.389-.856-.617-.218-.218-.304-.398-.237-.522.066-.123.409-.075 1.046.143.636.218 1.017.332 1.14.332.827.256 1.74.379 2.757.379 1.835-.123 3.451-.73 4.848-1.802 1.208-.883 2.301-2.059 3.28-3.511.979-1.451 1.569-2.912 1.759-4.364.257-1.451.494-2.96.713-4.506.219-1.546.428-3.14.618-4.791-1.588 1.452-3.546 3.008-5.894 4.649a121.13 121.13 0 0 1-6.892 4.506c-2.253 1.357-4.202 2.467-5.847 3.321-1.644.854-2.567 1.186-2.757.996-.123-.19.713-.968 2.519-2.325a522.308 522.308 0 0 0 6.56-5.028c2.567-1.992 5.2-4.193 7.89-6.593 2.691-2.4 4.868-4.772 6.512-7.116.571-.882 1.141-1.755 1.711-2.608a41.912 41.912 0 0 1 1.902-2.609 11.64 11.64 0 0 1 2.329-1.803 5.428 5.428 0 0 1 2.804-.759c.884 0 1.645.313 2.282.949a3.459 3.459 0 0 1 1.045 2.277Z"/><path fill="#fff" fill-rule="evenodd" d="M353.622 93.352c1.682-.124 3.118-.219 4.325-.285 2.472-.19 3.708-.19 3.708 0 .066.066-1.141.35-3.613.854-1.14.256-2.547.521-4.23.806a483.12 483.12 0 0 0-5.656.996c-5.581.883-10.98 1.755-16.209 2.61-5.228.853-10.79 1.726-16.684 2.608-2.918.446-5.751.854-8.508 1.233-2.757.38-5.438.731-8.033 1.044a534.325 534.325 0 0 1-5.086 7.495 296.363 296.363 0 0 1-2.994 4.269 607.785 607.785 0 0 1-7.083 9.724c-1.71 2.302-3.431 4.608-5.158 6.923l-2.019 2.707a1150.103 1150.103 0 0 0-5.989 7.921 296.782 296.782 0 0 0-5.799 8.017 205.493 205.493 0 0 1 6.749-4.601c.499-.33 1.012-.653 1.524-.975.327-.206.654-.412.977-.619.142-.105.266-.199.399-.304 2.567-1.992 5.2-4.193 7.89-6.593 2.691-2.4 4.868-4.772 6.512-7.116.571-.882 1.141-1.755 1.711-2.608a42.224 42.224 0 0 1 1.902-2.61 12.014 12.014 0 0 1 2.329-1.802 5.428 5.428 0 0 1 2.804-.759c.884 0 1.645.313 2.282.949a3.478 3.478 0 0 1 1.045 2.277c.057.692-.066 1.328-.38 1.897a6.965 6.965 0 0 1-1.188 1.565c-.475.475-.979.93-1.521 1.376-.542.446-.97.949-1.284 1.518a23.73 23.73 0 0 0-1.663 3.415 55.142 55.142 0 0 0-1.284 3.605 1198.2 1198.2 0 0 0-.647 2.276l-.446 1.567a113.442 113.442 0 0 0-.998 3.747 21.927 21.927 0 0 1-2.947 6.262c-1.331 1.963-3.014 3.481-5.038 4.553-2.406 1.205-4.782 1.708-7.13 1.518-1.265-.19-2.31-.531-3.137-1.043-.057 0-.257-.095-.571-.285-.313-.19-.646-.379-.998-.569a3.668 3.668 0 0 1-.855-.617c-.219-.218-.305-.398-.238-.522.066-.123.409-.076 1.046.143.636.218 1.017.332 1.14.332.827.256 1.74.379 2.757.379 1.835-.123 3.451-.73 4.848-1.802 1.208-.883 2.292-2.059 3.28-3.511.979-1.451 1.569-2.903 1.759-4.364.257-1.451.494-2.96.713-4.506.219-1.546.428-3.15.618-4.791-1.588 1.452-3.546 3.008-5.894 4.649a121.676 121.676 0 0 1-8.014 5.18c-.599.479-1.196.96-1.792 1.442-.597.481-1.193.963-1.792 1.442a146.273 146.273 0 0 0-4.943 4.174 26.949 26.949 0 0 0-1.854 1.613 84.687 84.687 0 0 1-1.854 1.708 8.95 8.95 0 0 1-1.616 1.138c-.57.313-1.236.351-1.996.095-.884-.313-1.445-.788-1.664-1.423-.219-.636-.238-1.328-.048-2.087a9.118 9.118 0 0 1 .904-2.23 51.03 51.03 0 0 1 1.093-1.85 65.503 65.503 0 0 1 1.901-3.036 441.32 441.32 0 0 1 2.344-3.448c.116-.169.232-.337.346-.508a220.778 220.778 0 0 1-6.873 5.711c-2.662 2.116-5.58 4.061-8.746 5.835a49.489 49.489 0 0 1-4.753 2.419 13.775 13.775 0 0 1-5.133 1.186c-1.521 0-2.871-.493-4.041-1.47-1.169-.978-1.663-2.296-1.473-3.938.314-2.95 1.169-5.663 2.538-8.149a96.386 96.386 0 0 1-4.059 2.931 114.593 114.593 0 0 1-9.079 5.645c-3.013 1.68-5.78 2.828-8.318 3.463-.504.133-1.074.275-1.711.427-.637.161-1.255.285-1.854.379-.599.095-1.141.171-1.616.238-.475.066-.808.066-.998 0-.504-.124-.827-.408-.951-.854-.123-.446-.028-.854.285-1.234.124-.189.552-.474 1.284-.853l.544-.283c.435-.227.743-.387.929-.476.067-.057.266-.171.618-.332.352-.162.732-.351 1.141-.57l.618-.332.618-.332c.409-.218.741-.427.998-.616a37.599 37.599 0 0 0 3.708-2.894 78.431 78.431 0 0 0 3.659-3.415 192.96 192.96 0 0 0 3.423-3.51 99.736 99.736 0 0 0 2.994-3.273 77.041 77.041 0 0 0 4.278-6.214c1.398-2.249 2.538-4.383 3.423-6.404-1.645.256-3.489.996-5.514 2.229-2.025 1.234-4.154 2.78-6.369 4.649a102.797 102.797 0 0 0-6.75 6.261 170.018 170.018 0 0 0-6.512 6.973 169.716 169.716 0 0 0-5.751 6.878c-1.778 2.249-3.261 4.251-4.468 6.025a9288.546 9288.546 0 0 1-7.701 11.242c-2.538 3.7-5.133 7.447-7.795 11.242a1195.681 1195.681 0 0 1-8.128 11.622 221.53 221.53 0 0 1-8.603 11.337c-.319.379-.635.759-.952 1.139-.315.379-.631.758-.95 1.138a16.69 16.69 0 0 1-2.091 2.087c-.19.123-.475.303-.856.522-.38.218-.637.075-.76-.427-.067-.313-.029-.664.095-1.044.124-.379.257-.73.38-1.044l.075-.185c.23-.57.454-1.125.686-1.665.256-.597.542-1.185.855-1.755a118.926 118.926 0 0 1 6.227-10.957c2.253-3.51 4.487-7.04 6.702-10.578a905.783 905.783 0 0 1 5.134-7.874 425.28 425.28 0 0 1 5.323-7.875 341.098 341.098 0 0 0 3.327-4.743 301.163 301.163 0 0 1 3.993-5.645c1.398-1.926 2.776-3.823 4.135-5.692l1.472-2.019c.786-1.077 1.517-2.078 2.188-3.009 1.013-1.404 2.143-2.959 3.384-4.666l.229-.315 1.74-2.192c.794-1 1.544-1.946 2.253-2.836a129.602 129.602 0 0 0 2.994-3.653c.922-1.167 1.54-1.916 1.854-2.229l.808-.807 1.616-1.612a26.947 26.947 0 0 1 1.949-1.755c.694-.57 1.302-.978 1.806-1.234.447-.256.789-.313 1.046-.19.314.124.409.408.285.854a23.368 23.368 0 0 1-.856 2.846 19.753 19.753 0 0 1-1.093 2.372 40.094 40.094 0 0 1-1.331 2.277l-.474.76c-.359.575-.754 1.209-1.189 1.896.313-.313.618-.588.903-.806.285-.218.551-.455.808-.712 2.538-2.333 4.962-4.231 7.272-5.692 2.31-1.451 4.402-2.561 6.274-3.32 1.873-.759 3.489-1.215 4.849-1.376 1.359-.161 2.329-.114 2.899.142.951.446 1.407 1.215 1.379 2.325-.029 1.11-.362 2.371-.998 3.795-.637 1.423-1.445 2.941-2.425 4.553a72.731 72.731 0 0 1-2.994 4.554 95.352 95.352 0 0 1-2.757 3.7l-.839 1.061c-.363.462-.621.789-.777.979l-1.996 2.372a603.534 603.534 0 0 1 5.513-3.748 64.182 64.182 0 0 1 3.66-2.258 68.707 68.707 0 0 1 4.421-5.284 46.218 46.218 0 0 1 3.802-3.558 61.331 61.331 0 0 1 4.183-3.178 34.233 34.233 0 0 1 4.373-2.704 28.47 28.47 0 0 1 4.753-1.945 8.582 8.582 0 0 1 2.472-.426 5.09 5.09 0 0 1 2.472.521c1.521.883 2.215 2.107 2.091 3.653-.123 1.546-.732 3.15-1.806 4.791a60.525 60.525 0 0 1-1.521 1.992 41.22 41.22 0 0 1-1.616 1.898 34.842 34.842 0 0 1-7.7 6.261 59.707 59.707 0 0 1-6.085 2.988c-2.024.854-4.344 1.632-6.939 2.325a18.32 18.32 0 0 0-3.042 6.072c1.834 0 3.869-.427 6.084-1.281a45.477 45.477 0 0 0 6.654-3.226c2.215-1.3 4.402-2.656 6.56-4.079a542.345 542.345 0 0 1 5.894-3.843c.123-.066.542-.341 1.236-.853.665-.484 1.378-1.016 2.129-1.585a301.149 301.149 0 0 1 3.622-5.056c2.5-3.416 4.991-6.897 7.463-10.436.405-.555.895-1.216 1.466-1.987l1.338-1.808a1197.87 1197.87 0 0 1 2.513-3.387l1.29-1.736a539.529 539.529 0 0 1 4.325-5.74c.798-1.046 1.579-2.07 2.342-3.073.69-.907 1.367-1.797 2.031-2.666-1.455.123-3.042.284-4.753.474-1.711.19-3.423.351-5.134.475-1.711.123-3.356.237-4.943.331a70.952 70.952 0 0 1-4.183.143c-2.538 0-3.803-.218-3.803-.664-.066-.19.219-.408.856-.664.637-.256 1.521-.541 2.662-.854 3.289-.949 6.94-1.679 10.932-2.182 3.993-.503 7.957-1.11 11.883-1.803a204.126 204.126 0 0 0 2.852-3.7c.761-1.015 1.236-1.612 1.426-1.802 2.472-3.103 4.963-6.195 7.463-9.298a99.498 99.498 0 0 1 8.033-8.823c.053-.053.174-.161.367-.334l.156-.14c.285-.256.57-.455.855-.617.285-.16.504-.208.666-.142.161.067.142.313-.048.76a51.86 51.86 0 0 1-2.709 5.217 163.771 163.771 0 0 1-3.232 5.17 335.567 335.567 0 0 1-3.851 5.787 688.06 688.06 0 0 0-4.658 6.974c2.025-.257 4.117-.494 6.275-.712 2.157-.218 4.344-.455 6.559-.712 5.894-.569 11.474-1.119 16.731-1.66 5.257-.54 10.714-1.062 16.351-1.565a406.17 406.17 0 0 1 5.752-.474ZM243.68 142.874c-.637.693-1.122 1.3-1.474 1.803l-.465.668c-.224.324-.464.671-.723 1.039a28.785 28.785 0 0 0 6.322-2.514 30.933 30.933 0 0 0 5.704-3.937 29.95 29.95 0 0 0 4.658-5.123 23.879 23.879 0 0 0 3.184-6.166 35.782 35.782 0 0 0-9.126 6.166 161.586 161.586 0 0 0-8.08 8.064Z" clip-rule="evenodd"/></svg>