<svg width="208" height="70" viewBox="0 0 208 70" fill="none" xmlns="http://www.w3.org/2000/svg"><g clip-path="url(#a)"><path d="M28.2087 69.1c-2.4913 0-4.8807-.989-6.6433-2.7497-1.7625-1.7606-2.754-4.149-2.7567-6.6403.0008-1.0207.1697-2.0343.5-3-2.2943-.5259-4.3042-1.9014-5.6252-3.8496-1.3211-1.9481-1.8552-4.3243-1.4948-6.6504.079-.5314.2097-1.0539.39-1.56-1.8802-.4484-3.5769-1.4644-4.85998-2.91-1.14131-1.2733-1.90649-2.8386-2.21019-4.5213-.30371-1.6828-.134-3.4168.49019-5.0087-2.04522-.7834-3.75138-2.2586-4.82212-4.1691C.105871 26.1303-.261772 23.9051.137538 21.7516c.399311-2.1534 1.540342-4.0989 3.224892-5.4985 1.68454-1.3997 3.80616-2.165 5.99629-2.1631 2.23548-.0049 4.39898.7896 6.09998 2.24.2969-.2638.6109-.5077.94-.73l.39-.21.18-.1c.3333-.1926.6771-.3663 1.03-.52l.45-.15.2-.06c.3614-.1185.7285-.2187 1.1-.3h.62c.381-.0552.7651-.0853 1.15-.09h.63c.3993.0214.7967.0682 1.19.14.1527.0294.303.0695.45.12l.21.06c.3605.0896.7147.2032 1.06.34.22.09.42.2.63.31l.2.11.23.12c.1603.066.3142.1463.46.24.24.17.4.3.55.42-1-4.71-2.88-10.94-8.21-12.64-1.0974-.40398-2.2515-.63344-3.42-.68-2.71 0-5.45 1.55-10.09998 5.7-.19927.17077-.4443.27927-.70468.31203-.26038.03276-.52465-.01166-.76002-.12774-.23536-.11608-.43145-.29872-.56395-.52526-.13249-.22653-.19555-.48698-.18135-.74903.00638-.17532.04873-.34745.12442-.50571.07569-.15826.18311-.29928.31558-.41429C8.77872 1.79 12.1087 0 15.4887 0c1.4764.0317562 2.9369.31236 4.32.83 3.1 1.06 5.15 2.7 7.26 6.53 1.363.21403 2.7403.32434 4.12.33 9.67 0 12.47-6 12.58-6.24.1076-.23587.2807-.4358.4988-.575892.2182-.14009.472-.21442.7312-.214108.1867-.00083.3712.040174.54.12.1615.06954.3075.170397.4298.29674.1222.12634.2182.27566.2823.43933.0642.16367.0953.33843.0915.51418-.0038.17575-.0424.34901-.1136.50975-.14.32-3.58 7.85-15 7.85-.9861-.0073-1.971-.0708-2.95-.19.5609 1.5692 1.0219 3.1725 1.38 4.8 1.2551-.5759 2.6191-.8759 4-.88 1.7751.0066 3.5108.5239 5 1.49.3285.2114.6395.4488.93.71 1.6209-1.3925 3.6686-2.1897 5.8043-2.2599 2.1357-.0702 4.2314.5909 5.9402 1.874 1.7088 1.283 2.9282 3.1111 3.4566 5.1816.5284 2.0705.334 4.2593-.5511 6.2043-.6683 1.5193-1.732 2.8316-3.08 3.8.9413 1.678 1.3395 3.6064 1.14 5.52-.2473 2.1456-1.2215 4.142-2.7605 5.6574-1.539 1.5154-3.5503 2.4585-5.6995 2.6726.2174.648.3583 1.3193.42 2 .1731 2.47-.6395 4.9079-2.26 6.78-1.2821 1.5041-3.0141 2.556-4.94 3 .3376.9642.51 1.9784.51 3-.0157 2.4766-1.0073 4.8472-2.7595 6.5976-1.7522 1.7503-4.1238 2.7393-6.6005 2.7524Zm0-16.1c-.9023-.0349-1.8023.1128-2.6462.434-.8439.3213-1.6143.8096-2.265 1.4356-.6507.6261-1.1683 1.377-1.5219 2.2079-.3536.8308-.5359 1.7245-.5359 2.6275s.1823 1.7967.5359 2.6275c.3536.8309.8712 1.5818 1.5219 2.2079.6507.626 1.4211 1.1143 2.265 1.4356.8439.3212 1.7439.4689 2.6462.434h.28c1.7394-.0929 3.3745-.8585 4.5597-2.1351 1.1851-1.2765 1.8274-2.9639 1.791-4.7054-.0363-1.7415-.7485-3.4006-1.9859-4.6266S29.9505 53.0202 28.2087 53Zm-6.76-12.08c-1.2394.0041-2.4534.3514-3.5074 1.0033-1.0541.652-1.907 1.5831-2.4641 2.6902-.5572 1.1071-.7969 2.3468-.6925 3.5818.1045 1.235.5489 2.4169 1.284 3.4147.5325.7189 1.2029 1.3244 1.9722 1.7811.7692.4568 1.6218.7555 2.5078.8789 1.3177-1.8414 3.251-3.1503 5.45-3.69-.2567-.7231-.4213-1.4757-.49-2.24-.1439-1.7469.2024-3.4992 1-5.06-.6241-.7341-1.3992-1.3249-2.2724-1.7322-.8733-.4073-1.8241-.6214-2.7876-.6278Zm7.32 9.43c1.3969.083 2.7576.4772 3.9826 1.1537 1.2249.6765 2.2832 1.6182 3.0974 2.7563 1.6873-.2272 3.2249-1.0881 4.3003-2.408 1.0754-1.3199 1.608-2.9997 1.4896-4.6981-.1184-1.6984-.879-3.288-2.1271-4.4459-1.2482-1.1579-2.8903-1.7972-4.5928-1.788h-.52c-1.0726.0786-2.1105.4142-3.026.9785-.9156.5643-1.6818 1.3408-2.234 2.2637-.5521.9229-.874 1.9651-.9384 3.0387-.0644 1.0735.1305 2.1468.5684 3.1291v.02Zm14.23-8.09c1.7152-.0029 3.3642-.6626 4.6081-1.8434 1.244-1.1809 1.9886-2.7933 2.0807-4.506.0922-1.7128-.475-3.3958-1.5851-4.7033-1.1101-1.3075-2.6787-2.1403-4.3837-2.3273-.2464-.0149-.4935-.0149-.74 0-1.1391.001-2.2591.2924-3.2542.8466-.9952.5542-1.8326 1.353-2.4332 2.3209-.6005.9679-.9444 2.073-.9991 3.2108-.0547 1.1377.1816 2.2706.6865 3.2917 2.263.5098 4.2575 1.8383 5.6 3.73l.42-.02Zm-28.23-13.43c-1.6351.0012-3.2137.5985-4.44 1.68-.66409.5827-1.20659 1.2908-1.59634 2.0837-.38975.7929-.61908 1.6549-.67483 2.5367-.05574.8817.06319 1.7658.34998 2.6014.28678.8357.73578 1.6065 1.32121 2.2682 1.01998 1.1575 2.40808 1.9275 3.92998 2.18h.2c.5523-.8035 1.2272-1.5155 2-2.11.9428-.689 2.0086-1.1913 3.14-1.48-.1502-.4108-.2705-.8319-.36-1.26-.4559-2.2002-.1007-4.4911 1-6.45-.6314-.6526-1.3884-1.1706-2.2254-1.5229-.8369-.3523-1.7365-.5316-2.6446-.5271Zm7 9.45c2.4073.0844 4.6892 1.0946 6.37 2.82 1.555-1.6065 3.6338-2.6033 5.86-2.81-.54-1.7765-.54-3.6735 0-5.45-.5023-1.2676-1.3864-2.3475-2.53-3.09-1.4955-.9603-3.3106-1.2889-5.0479-.9141-1.7374.3748-3.2555 1.4226-4.2221 2.9141-.6362.9607-1.0074 2.0723-1.0759 3.2225-.0684 1.1503.1682 2.2981.6859 3.3275l-.04-.02Zm6.11-12.28c1.7734-.001 3.5094.5094 5 1.47 1.015.6624 1.8857 1.5229 2.56 2.53.5596-.7658 1.2342-1.4404 2-2-.2069-.3583-.3841-.7328-.53-1.12-.5479-1.3953-.7503-2.9024-.5901-4.3929.1601-1.4904.6782-2.9201 1.5101-4.1671-.1903-.1698-.3943-.3237-.61-.46-1.0785-.7069-2.3405-1.0823-3.63-1.08-.9987-.0047-1.9859.2139-2.8893.6399-.9034.426-1.7001 1.0486-2.3318 1.8222-.6317.7736-1.0825 1.6787-1.3193 2.649-.2369.9703-.2538 1.9812-.0496 2.9589.0966.3965.234.7819.41 1.15h.47ZM9.36872 16.77c-1.32498.001-2.6199.3949-3.72105 1.1318-1.10116.7369-1.9591 1.7837-2.46536 3.0082-.50626 1.2244-.63811 2.5715-.37887 3.8709.25923 1.2993.89791 2.4927 1.83528 3.4291.75557.7479 1.67733 1.3064 2.69 1.63.36316-.4905.77529-.9429 1.23-1.35 1.1528-.9791 2.52508-1.6652 3.99998-2-.1084-.3078-.1985-.6216-.27-.94v-.18c-.1159-.5528-.1795-1.1153-.19-1.68-.0265-1.1953.1807-2.3842.61-3.5 0-.09.07-.18.11-.27.1886-.4289.4023-.8463.64-1.25.0413-.0894.0881-.1763.14-.26v-.06c-1.1864-.9974-2.6803-1.5554-4.22998-1.58Zm33.62998 9.39c.3343-.0003.6682.0197 1 .06 2.1172.2302 4.0926 1.1756 5.6 2.68 1.2112-.8705 2.0978-2.1198 2.5197-3.5504.422-1.4307.3552-2.9611-.1897-4.3496-.4814-1.2379-1.3188-2.3055-2.4066-3.0677-1.0878-.7623-2.377-1.1851-3.7049-1.2151-1.3279-.0299-2.6349.3343-3.756 1.0467-1.121.7125-2.0057 1.7411-2.5425 2.9561-.3566.8053-.55 1.6734-.5689 2.554-.0188.8805.1371 1.7561.4589 2.576.1096.2891.2399.5698.39.84 1.0275-.3625 2.1106-.5419 3.2-.53Zm-27.65 0c2.1909.1326 4.2654 1.0318 5.86 2.54.9978-.9802 2.1998-1.728 3.52-2.19-.1295-.3707-.2397-.7479-.33-1.13-.2596-1.2044-.2785-2.4482-.0553-3.6599.2231-1.2117.6837-2.3672 1.3553-3.4001v-.05c-1.206-.9909-2.7191-1.5318-4.28-1.53-1.7203-.0045-3.3745.6629-4.61 1.86-1.0008.9594-1.6789 2.206-1.9404 3.5675-.2616 1.3615-.0937 2.7706.4804 4.0325v-.04Z" fill="#fff"/><path d="M86.2794 37.5898h5.91v11.33c-1.5864 1.1851-3.3708 2.079-5.27 2.64-1.9436.6-3.9658.9067-6 .91-2.7203.0469-5.409-.5892-7.82-1.85-2.2553-1.1833-4.141-2.9652-5.45-5.15-1.339-2.2485-2.0311-4.8232-2-7.44-.028-2.6165.6639-5.1903 2-7.44 1.3168-2.1902 3.2179-3.9702 5.49-5.14 2.4269-1.2577 5.1269-1.8966 7.86-1.86 2.2804-.0339 4.5447.3877 6.66 1.24 1.9274.7839 3.6411 2.0143 5 3.59l-4.15 3.83c-.9122-1.0058-2.0274-1.8067-3.272-2.3497-1.2446-.543-2.5902-.8157-3.948-.8003-1.651-.0316-3.2838.35-4.75 1.11-1.3535.7224-2.4738 1.8149-3.23 3.15-.7663 1.4241-1.1488 3.0232-1.11 4.64-.0259 1.6183.3741 3.2151 1.16 4.63.7504 1.3376 1.8631 2.4364 3.21 3.17 1.4335.7983 3.0493 1.2117 4.69 1.2 1.7409.0248 3.4601-.3878 5-1.2l.02-8.21ZM115.648 51.9999l-5.39-7.78h-5.94v7.78h-6.4703v-27.93h12.0903c2.214-.0534 4.413.3695 6.45 1.24 1.714.7316 3.175 1.9525 4.2 3.51 1.015 1.6073 1.53 3.4797 1.48 5.38.069 1.88-.446 3.7352-1.474 5.3109-1.028 1.5756-2.518 2.7945-4.266 3.4891l6.26 9h-6.94Zm-1.65-21.41c-1.286-.9205-2.853-1.3626-4.43-1.25h-5.26v9.73h5.26c1.581.1083 3.15-.3449 4.43-1.28.51-.4428.912-.9965 1.176-1.6188.263-.6222.381-1.2965.344-1.9712.04-.678-.076-1.3561-.34-1.9821-.263-.6259-.667-1.1829-1.18-1.6279ZM145.25 46.0003h-13l-2.47 6h-6.62l12.44-27.93h6.4l12.5 27.93h-6.78l-2.47-6Zm-2-4.91-4.42-10.69-4.47 10.7 8.89-.01ZM175.628 25.3099c1.716.734 3.179 1.9542 4.21 3.51 1.007 1.6103 1.518 3.4813 1.47 5.38.043 1.8949-.468 3.7612-1.47 5.37-1.025 1.561-2.49 2.7827-4.21 3.51-2.038.8541-4.232 1.2698-6.44 1.22h-5.63v7.7h-6.46v-27.93h12.09c2.21-.0532 4.407.3697 6.44 1.24Zm-2.37 12.46c.51-.4378.912-.9881 1.174-1.6075.262-.6195.377-1.2912.336-1.9625.042-.6773-.072-1.3552-.334-1.9812-.262-.626-.664-1.1834-1.176-1.6288-1.287-.919-2.853-1.361-4.43-1.25h-5.27v9.66h5.27c1.574.1168 3.141-.3181 4.43-1.23ZM207.208 46.8103v5.19h-21.63v-27.93h21.11v5.19h-14.69v6.06h13v5h-13v6.46l15.21.03Z" fill="#FCFCFC"/></g><defs><clipPath id="a"><rect width="207.21" height="69.1" fill="#fff"/></clipPath></defs></svg>