<svg width="121" height="45" viewBox="0 0 121 45" fill="none" xmlns="http://www.w3.org/2000/svg"><path d="M19.3293 43.2891V25.6183c0-4.0301-2.0715-5.2917-5.3223-5.2917-1.2701.0288-2.5161.3525-3.6397.9454-1.12999.5979-2.10753 1.4474-2.85723 2.4829v19.5342H0V3.19458h7.51007V18.0421c1.25283-1.4366 2.80153-2.5852 4.53993-3.367 1.7302-.7776 3.6095-1.1674 5.5063-1.1423 6.263 0 9.2783 3.4864 9.2783 9.1412v20.6184h-7.5053v-.0033Zm26.9121.4953c-8.6959 0-15.0153-6.1064-15.0153-15.5944 0-9.4864 6.1581-15.5897 15.0153-15.5897 8.6426 0 14.7458 5.9435 14.7458 14.9346.0081.9874-.0645 1.9715-.2162 2.946H38.8975c.3775 4.4689 3.4041 6.9793 7.2019 6.9793 3.2412 0 5.0239-1.636 5.9951-3.6349h8.157c-1.6214 5.5434-6.5904 9.9591-14.0085 9.9591h-.0016Zm-7.2923-18.4242h14.2248c-.1081-3.9817-3.2412-6.4905-7.131-6.4905-3.6187 0-6.4807 2.3458-7.0744 6.4889h-.0194v.0016ZM64.8915 3.19458h7.3181V43.2891h-7.3181V3.19458Zm12.1968 1.97795c0-2.49744 1.9441-4.452803 4.6448-4.452803 2.6991 0 4.6254 1.936003 4.6254 4.452803 0 2.5168-1.9973 4.4528-4.6432 4.4528-2.6458 0-4.627-1.97311-4.627-4.4528Zm.8099 8.03767h7.5601v30.0789h-7.5601V13.2102ZM114.232 27.4501c-.131-2.284-1.121-4.4339-2.772-6.0178-1.637-1.5698-3.817-2.4471-6.086-2.449-2.267.0023-4.447.8796-6.0835 2.449-1.6507 1.5839-2.6409 3.7338-2.7717 6.0178h-6.7454c-.0049-4.1887 1.6373-8.2113 4.5722-11.1998 1.4405-1.467 3.1585-2.6327 5.0538-3.4293 1.8956-.7966 3.9306-1.2081 5.9866-1.2106 2.056.0026 4.091.4141 5.986 1.2107 1.895.7966 3.613 1.9623 5.054 3.4292 2.935 2.9882 4.578 7.0109 4.574 11.1998h-6.768Zm-8.517 16.8303c-2.932-.0019-5.8023-.8476-8.2669-2.4362-2.4864-1.6043-4.4698-3.8774-5.7225-6.5582l6.0661-2.8862c.7024 1.4809 1.7986 2.74 3.1683 3.6396 1.358.8908 2.939 1.3827 4.563 1.4198 1.622.0347 3.222-.3868 4.617-1.2165 1.407-.8377 2.556-2.0468 3.32-3.4945l6.076 2.8911c-1.295 2.5847-3.275 4.764-5.724 6.3001-2.428 1.521-5.232 2.3319-8.097 2.341Z" fill="#fff"/></svg>