<svg width="290" height="100" viewBox="0 0 290 100" fill="none" xmlns="http://www.w3.org/2000/svg"><path d="M9.57422 77.9502c4.18748 5.8247 9.55888 10.6984 15.76198 14.3017 6.2031 3.6032 13.0978 5.8545 20.232 6.6063-3.67-5.523-9.006-10.605-15.666-14.474-6.66-3.868-13.714-5.981-20.32798-6.433v-.001ZM38.8494 68.98c-12.832-7.455-26.72-9.355-36.65799-5.998.95938 3.1708 2.22466 6.2409 3.778 9.167 8.63399-.2 18.06099 2.145 26.83299 7.24 8.772 5.095 15.482 12.126 19.587 19.728 3.313-.1018 6.6083-.5238 9.84-1.26-2.009-10.294-10.55-21.42-23.38-28.876v-.001ZM99.9984 38.7203c-1.6314-6.6361-4.5834-12.8754-8.6796-18.3454-4.0963-5.4699-9.2528-10.0584-15.1616-13.49129-5.9089-3.43293-12.449-5.63994-19.2297-6.489255C50.1468-.454962 43.2644.070834 36.6914 1.94035c10.98 1.344 23.17 5.467 35.123 12.40995 11.953 6.946 21.58 15.49 28.184 24.37ZM84.0231 63.0578c-5.62-9.335-15.25-18.273-27.11-25.164-11.862-6.89-24.393-10.826-35.277-11.087-9.575-.227-16.76104 2.557-19.71004 7.635-.018.03-.041.059-.06.089-.26147.9477-.49556 1.9028-.702 2.864 4.12-1.626 8.89204-2.532 14.19804-2.632 11.8-.222 25.008 3.553 37.195 10.633 12.187 7.08 22.016 16.687 27.666 27.045 2.534 4.667 4.114 9.261 4.74 13.65.7336-.6532 1.4473-1.3285 2.14-2.025.018-.032.03-.066.048-.1 2.95-5.083 1.81-12.702-3.128-20.908Z" fill="#fff"/><path d="M47.888 53.4248C29.725 42.8728 9.652 41.2198 0 48.5848c.019 2.304.195 4.605.527 6.886 2.83937-.8607 5.76572-1.4027 8.725-1.616 10.787-.81 22.678 2.194 33.47 8.467 10.79 6.272 19.297 15.118 23.937 24.883 1.2823 2.6752 2.2605 5.4857 2.916 8.379 2.1466-.8417 4.2337-1.828 6.247-2.952 1.616-12.034-9.765-28.652-27.934-39.207ZM93.3677 47.4338c-5.686-9.325-15.3969-18.288-27.3429-25.224-11.945-6.938-24.5251-10.936-35.4431-11.256-8.323-.24-14.77 1.777-18.1129 5.588 13.88-2.351 32.188 1.601 49.934 11.91 17.746 10.31 30.2539 24.259 35.0809 37.48 1.655-4.789.216-11.389-4.115-18.5l-.001.002ZM137.934 31.6367h6.534v25.5682c-.011 2.3438-.509 4.362-1.491 6.0547-.983 1.6809-2.356 2.977-4.119 3.8885-1.752.8996-3.794 1.3494-6.126 1.3494-2.131 0-4.048-.3788-5.753-1.1363-1.693-.7695-3.036-1.9058-4.03-3.4091-.995-1.5033-1.492-3.3736-1.492-5.6108h6.552c.012.9824.225 1.8288.639 2.539.426.7103 1.012 1.2548 1.758 1.6335.746.3788 1.604.5682 2.574.5682 1.054 0 1.948-.219 2.682-.6569.733-.4498 1.29-1.1127 1.669-1.9887.39-.8759.591-1.9531.603-3.2315V31.6367ZM168.714 56.5302V40.7276h6.427v27.2728h-6.232v-4.8473h-.284c-.616 1.5269-1.628 2.7758-3.036 3.7464-1.397.9706-3.119 1.456-5.167 1.456-1.788 0-3.368-.3966-4.741-1.1897-1.361-.8049-2.427-1.9708-3.196-3.4978-.769-1.5389-1.154-3.3973-1.154-5.5753V40.7276h6.428v16.3708c0 1.7282.473 3.1013 1.42 4.1193.947 1.018 2.19 1.527 3.729 1.527.947 0 1.864-.2309 2.752-.6925.888-.4616 1.616-1.1482 2.184-2.0597.58-.9233.87-2.0774.87-3.4623ZM181.751 78.2276v-37.5h6.321v4.51h.373c.331-.6629.799-1.3672 1.402-2.113.604-.7575 1.421-1.4027 2.451-1.9353 1.03-.5445 2.344-.8168 3.942-.8168 2.107 0 4.006.5386 5.699 1.6158 1.705 1.0653 3.054 2.6456 4.048 4.7407 1.007 2.0834 1.51 4.6402 1.51 7.6705 0 2.9948-.492 5.5398-1.474 7.6349-.983 2.0952-2.32 3.6932-4.013 4.7941-1.693 1.1008-3.61 1.6513-5.753 1.6513-1.562 0-2.858-.2605-3.888-.7813-1.03-.5208-1.859-1.1482-2.486-1.8821-.616-.7457-1.095-1.45-1.438-2.1129h-.267v14.5241h-6.427Zm6.303-23.8636c0 1.7637.249 3.3085.746 4.6342.509 1.3258 1.237 2.3615 2.184 3.1073.959.7339 2.119 1.1008 3.48 1.1008 1.42 0 2.61-.3788 3.569-1.1363.959-.7695 1.681-1.817 2.166-3.1428.497-1.3376.746-2.8587.746-4.5632 0-1.6927-.243-3.196-.728-4.51-.486-1.3139-1.208-2.3437-2.166-3.0894-.959-.7458-2.155-1.1186-3.587-1.1186-1.373 0-2.539.361-3.498 1.083-.959.7221-1.687 1.7342-2.184 3.0363-.485 1.3021-.728 2.835-.728 4.5987ZM213.001 68.0004V40.7276h6.427v27.2728h-6.427Zm3.231-31.1435c-1.018 0-1.894-.3374-2.627-1.0121-.734-.6865-1.101-1.5092-1.101-2.468 0-.9707.367-1.7933 1.101-2.4681.733-.6865 1.609-1.0298 2.627-1.0298 1.03 0 1.906.3433 2.628 1.0298.734.6748 1.101 1.4974 1.101 2.4681 0 .9588-.367 1.7815-1.101 2.468-.722.6747-1.598 1.0121-2.628 1.0121ZM239.657 40.7276v4.9716h-15.679v-4.9716h15.679Zm-11.808-6.5341h6.428v25.6037c0 .8641.13 1.527.39 1.9887.273.4498.628.7575 1.066.9233.438.1657.923.2485 1.456.2485.402 0 .769-.0295 1.1-.0887.344-.0592.604-.1125.782-.1598l1.083 5.0248c-.344.1184-.835.2486-1.474.3906-.627.1421-1.397.2249-2.308.2486-1.61.0474-3.06-.1953-4.35-.728-1.291-.5445-2.314-1.3849-3.072-2.5213-.746-1.1363-1.113-2.5568-1.101-4.2613V34.1935ZM256.813 68.533c-2.734 0-5.096-.5682-7.084-1.7045-1.977-1.1482-3.498-2.7699-4.564-4.8651-1.065-2.107-1.598-4.5869-1.598-7.4396 0-2.8054.533-5.2675 1.598-7.3864 1.077-2.1307 2.581-3.7878 4.51-4.9716 1.93-1.1955 4.197-1.7933 6.801-1.7933 1.681 0 3.267.2723 4.758.8168 1.504.5326 2.829 1.3612 3.977 2.4858 1.161 1.1245 2.072 2.5568 2.735 4.2968.663 1.7283.994 3.7879.994 6.179v1.9709h-22.354v-4.3324h16.193c-.012-1.231-.278-2.326-.799-3.2848-.521-.9706-1.249-1.7341-2.184-2.2905-.923-.5563-2-.8345-3.232-.8345-1.313 0-2.468.3196-3.462.9588-.994.6274-1.77 1.456-2.326 2.4858-.544 1.018-.823 2.1366-.834 3.3558v3.782c0 1.5862.29 2.9474.87 4.0838.58 1.1245 1.39 1.9886 2.432 2.5923 1.042.5919 2.261.8878 3.658.8878.935 0 1.781-.1302 2.539-.3906.757-.2723 1.414-.6688 1.971-1.1896.556-.5209.976-1.166 1.26-1.9354l6.002.6747c-.379 1.5862-1.101 2.9711-2.166 4.1548-1.054 1.1719-2.403 2.0834-4.049 2.7344-1.645.6392-3.527.9588-5.646.9588ZM274.378 68.0004V40.7276h6.232v4.5455h.284c.497-1.5744 1.35-2.7877 2.557-3.6399 1.219-.8641 2.61-1.2962 4.173-1.2962.355 0 .751.0178 1.189.0533.45.0236.823.0651 1.119.1243v5.9126c-.272-.0947-.704-.1776-1.296-.2486-.58-.0828-1.143-.1243-1.687-.1243-1.172 0-2.226.2545-3.161.7635-.923.4972-1.651 1.1897-2.184 2.0774-.532.8878-.799 1.9117-.799 3.0718v16.0334h-6.427Z" fill="#fff"/></svg>