<svg width="129" height="40" viewBox="0 0 129 40" fill="none" xmlns="http://www.w3.org/2000/svg"><path d="M80.9985 26.9202h-.215c-.215 0-.3909-.1748-.3909-.3884V13.6774c0-.2136.1759-.3883.3909-.3883h.215c.215 0 .3909.1747.3909.3883v12.8544c0 .2136-.1759.3884-.3909.3884ZM54.5535 26.9202h.215c.215 0 .3909-.1748.3909-.3884V13.6774c0-.2136-.1759-.3883-.3909-.3883h-.215c-.215 0-.3909.1747-.3909.3883v12.8544c0 .2136.1759.3884.3909.3884ZM71.4211 13.7745v-.0388c-.0195-.1165-.0586-.233-.1563-.3301-.0196-.0195-.0587-.0389-.0782-.0583h-.0196c-.0195-.0194-.0586-.0194-.0782-.0388h-.0195c-.0195 0-.0391-.0194-.0782-.0194H70.7761c-.0195 0-.0586.0194-.0782.0194 0 0-.0195 0-.0195.0194-.0196.0194-.0391.0194-.0586.0388-.0196 0-.0196.0194-.0391.0194-.0196.0195-.0391.0195-.0391.0389-.0196.0194-.0196.0194-.0196.0388-.0195.0194-.0195.0194-.0391.0389l-7.6813 11.9612-3.8505-5.9806c-.1563-.2331-.4691-.3107-.7036-.1554-.2346.1554-.3127.4661-.1564.6991l4.2805 6.6602c.0195.0194.0195.0388.0391.0388 0 .0194.0195.0194.0195.0389.0196.0194.0196.0194.0391.0388.0195.0194.0195.0194.0391.0388.0195 0 .0195.0194.0391.0194.0195 0 .0391.0195.0391.0195.0195 0 .0391.0194.0586.0194.0195 0 .0196 0 .0391.0194h.1955c.0195 0 .039 0 .0586-.0194.0195 0 .0195 0 .0391-.0194.0195 0 .0391-.0195.0586-.0389 0 0 .0196 0 .0196-.0194.0195-.0194.0391-.0194.0586-.0388l.0195-.0194c.0196-.0195.0196-.0195.0391-.0389.0196-.0194.0196-.0194.0391-.0388l7.1732-11.1651v10.8932c0 .2719.2346.5049.5082.5049.2736 0 .5082-.233.5082-.5049l.0195-12.6408ZM103.593 22.0851h.235c.215 0 .391-.1747.391-.3883v-8.0389c0-.2136-.176-.3884-.391-.3884h-.235c-.215 0-.391.1748-.391.3884v8.0195c0 .233.176.4077.391.4077ZM104.082 26.0658 91.3576 13.4249c-.1955-.1941-.5278-.1941-.7232 0-.0977.0971-.1564.233-.1564.369v12.6214c0 .2718.2346.5048.5082.5048.2736 0 .5082-.233.5082-.5048V14.9977l11.8446 11.7671c.195.1942.528.1942.723 0 .215-.1942.215-.5049.02-.699ZM47.0284 26.1816l-2.5213-4.8544c-.1369-.2524-.43-.3495-.6841-.2136-.2541.136-.3518.4272-.215.6797l.1954.3883h-7.5641l4.2414-8.1748c.1368-.2524.0391-.5437-.215-.6796-.2541-.1359-.5668-.0389-.6841.2136l-6.5477 12.6214c-.1368.2524-.0391.5437.215.6796.2541.1359.5472.0388.6841-.2136l1.7786-3.4369h8.6l1.7786 3.4369c.1369.2524.43.3495.6841.2136.2932-.1165.3909-.4078.2541-.6602ZM25.6849 26.0075l-10.1246-6.6991v-5.534c0-.2719-.2345-.5049-.5082-.5049-.2736 0-.5082.233-.5082.5049v12.6214c0 .2718.2346.5049.5082.5049.2737 0 .5082-.2331.5082-.5049v-5.8835l9.5577 6.3301c.2346.1553.5473.0971.7037-.1359v-.0194c.1563-.2136.0977-.5243-.1368-.6796ZM19.1177 17.7932l.1172.1748c.1173.1747.3714.233.5473.1165l5.9027-3.9223c.1759-.1165.2346-.369.1173-.5437l-.1173-.1748c-.1172-.1747-.3713-.233-.5472-.1165l-5.9028 3.9223c-.1759.1165-.2345.3496-.1172.5437ZM127.79 17.9096c-.117.1166-.175.3107-.136.4661.097.466.156.9708.156 1.534 0 1.0874-.195 2.0194-.586 2.7961-.391.7767-.939 1.4369-1.623 1.9418-.684.5048-1.505.8932-2.443 1.1262-.938.2524-1.935.3689-3.029.3689-1.095 0-2.111-.1165-3.049-.3689-.939-.2524-1.76-.6214-2.444-1.1262-.703-.5049-1.231-1.1651-1.622-1.9418s-.586-1.7281-.586-2.7961c0-.7185.097-1.3787.273-1.9612.176-.5825.43-1.1068.763-1.5728.332-.4661.723-.8738 1.192-1.2039.469-.3301.997-.6214 1.564-.8544.566-.233 1.192-.3883 1.856-.5048.665-.1165 1.349-.1554 2.072-.1554 1.075 0 2.092.1165 3.03.369.039 0 .078.0194.097.0194.118.0388.255 0 .352-.0971l.118-.1165c.195-.1942.117-.5437-.157-.602-1.055-.2718-2.208-.4077-3.42-.4077-.821 0-1.603.0582-2.346.1747-.742.1165-1.446.3107-2.091.5631-.645.2525-1.231.5826-1.759.9515-.528.3883-.977.8349-1.349 1.3592-.371.5243-.664 1.1262-.86 1.7864-.215.6602-.313 1.3981-.313 2.2137 0 1.2233.215 2.2912.665 3.165.45.8932 1.055 1.6311 1.857 2.2136.801.5825 1.72 1.0097 2.775 1.2816 1.075.2718 2.209.4077 3.44.4077 1.232 0 2.365-.1359 3.421-.4077 1.055-.2719 1.974-.6991 2.756-1.2816.781-.5825 1.387-1.3204 1.837-2.2136.449-.8932.664-1.9417.664-3.165 0-.6214-.058-1.204-.175-1.7477-.137-.3495-.606-.5048-.9-.2136Z" fill="#fff"/><path d="M126.344 15.6962c.281 0 .508-.226.508-.5048 0-.2789-.227-.5049-.508-.5049s-.508.226-.508.5049c0 .2788.227.5048.508.5048Z" fill="#fff"/><path d="M35.8094 30.8616c-.1563 0-.2932.0776-.3909.1941-3.7723 5.1262-9.8118 8.0194-16.1836 7.767C9.36442 38.4344 1.33124 30.4538.959881 20.648.764427 15.444 2.64079 10.5314 6.27624 6.78383 9.9117 3.03625 14.7785.958583 20.0167.958583c6.0591 0 11.8055 2.912617 15.4018 7.786407.0977.11651.2346.19418.3909.19418.1759 0 .3518-.09709.43-.25243.0782-.15534.0587-.34952-.0391-.50486C32.2912 2.88091 26.0367-.167632 19.4499.00712555 14.2899.143048 9.42306 2.25955 5.76806 5.94887 2.1326 9.63819.0803361 14.4731.00215421 19.6188-.0760275 24.9781 1.97624 30.046 5.76806 33.8713c3.79182 3.8252 8.87364 5.9417 14.26814 5.9417 6.3523 0 12.4114-3.0485 16.1837-8.1747.1173-.1554.1173-.3496.0391-.5049-.0978-.1748-.2541-.2718-.4496-.2718Z" fill="url(#a)"/><defs><radialGradient id="a" cx="0" cy="0" r="1" gradientUnits="userSpaceOnUse" gradientTransform="matrix(23.99999 -33.49997 70.80397 50.72525 12 41.5)"><stop stop-color="#fff"/><stop offset="1" stop-color="#fff" stop-opacity="0"/></radialGradient></defs></svg>