<svg width="422" height="69" viewBox="0 0 422 69" fill="none" xmlns="http://www.w3.org/2000/svg"><path d="M40.4284 32.8194c.2329.534.3485 1.1073.3485 1.6806 0 .5733-.1173 1.1466-.3485 1.6806L26.1765 69h-5.6189l-2.3189-3.9585 10.68-23.6377c.136-.2893.1955-.6024.1802-.9122-.0136-.3098-.1037-.6144-.2652-.8899-.1615-.2756-.3859-.5015-.6477-.6623-.2618-.1609-.561-.2602-.8739-.279L1.27338 36.6375 0 34.5l1.27338-2.1375 26.03872-2.0229c.3129-.0188.6121-.1164.8739-.279.2618-.1625.4862-.3867.6477-.6623.1615-.2738.2499-.5801.2652-.8899.0136-.3098-.0459-.6229-.1802-.9122l-10.68-23.63774L20.5576 0h5.6189l14.2519 32.8194ZM44.5716 36.1806c-.2329-.534-.3485-1.1073-.3485-1.6806 0-.5733.1173-1.1466.3485-1.6806L58.8235 0h5.6189l2.3189 3.95846-10.68 23.63774c-.136.2893-.1955.6024-.1802.9122.0136.3098.1037.6144.2652.8899.1615.2756.3859.5015.6477.6623.2618.1609.561.2602.8739.279l26.0387 2.0229L85 34.5l-1.2734 2.1375-26.0387 2.0229c-.3129.0188-.6121.1181-.8739.279-.2618.1625-.4862.3867-.6477.6623-.1615.2738-.2499.5801-.2652.8899-.0136.3098.0459.6229.1802.9122l10.68 23.6377L64.4424 69h-5.6189L44.5716 36.1806ZM106.943 17.5296h14.779l8.184 30.9934 8.123-30.9934h14.66l-1.137 33.9976h-5.613l-1.081-30.404-8.067 30.404h-13.894l-8.127-30.404-1.02 30.404h-5.673l-1.138-33.9976h.004Zm85.546 7.2471v-7.2471h36.388v7.2471h-14.131l-1.137 26.7505h-5.85l-1.137-26.7505H192.489ZM251.956 17c4.886 0 9.126.5296 12.247 1.4721v7.6002c-3.354-1.1191-6.772-1.532-11.245-1.532-8.656 0-13.602 2.8276-13.602 10.0748 0 7.2471 4.593 10.018 13.013 10.018 4.476 0 8.536-.5296 11.834-1.8851v7.2471C261.434 51.1142 257.198 52 251.72 52c-13.012 0-20.727-5.1855-20.727-17.3818C230.993 22.422 238.764 17 251.953 17h.003Zm17.722 34.5303V17.5327h8.123v13.2586h19.429V17.5327h8.124v33.9976h-8.124V37.8588h-19.429v13.6715h-8.123Zm42.077 0V17.5327h16.663c13.189 0 19.841 4.3029 19.841 16.6158 0 12.3129-6.712 17.3818-20.194 17.3818h-16.31Zm16.134-6.6576c7.83 0 12.01-2.0049 12.01-10.2513 0-7.72-3.71-10.1347-11.894-10.1347h-8.127v20.386h8.011Zm56.131-27.34h9.302l9.834 13.8481 9.834-13.8481h8.949L406.984 38.568l-1.138 12.9623h-5.789l-1.137-13.0221-14.896-20.9755h-.004Zm-201.98 0h-10.962l-13.894 32.557-.557 1.4406h8.596l3.71-9.8415h15.073l3.71 9.8415h8.773l-.507-1.324-13.942-32.6767v.0031Zm-10.458 17.0887 4.886-12.9623 4.886 12.9623h-9.775.003Zm203.263-17.0887h-10.962l-13.894 32.557-.558 1.4406h8.596l3.711-9.8415h15.072l3.711 9.8415h8.772l-.507-1.324-13.941-32.6767v.0031Zm-10.458 17.0887 4.885-12.9623 4.886 12.9623h-9.774.003Z" fill="#fff"/></svg>