<svg width="70" height="34" viewBox="0 0 70 34" fill="none" xmlns="http://www.w3.org/2000/svg"><g clip-path="url(#a)"><path fill-rule="evenodd" clip-rule="evenodd" d="M48.8848.110789c-.214.045346-.0987-.264879-1.2707 3.401921-.4447 1.38881-.8157 2.54888-.8258 2.57682-.015.03983.1388.05138.6787.05138h.6955l.0685-.25668c.0937-.35139.2993-1.06018.3395-1.16024.03-.07948.0618-.08183 1.0265-.07062l.9946.01171.2158.73791.2139.73792h.729c.2426.00916.4859-.00024.7272-.02812 0-.06978-1.8123-5.677053-1.8791-5.813424-.0313-.076832-.0896-.139562-.1639-.176362-.5158-.0370306-1.0334-.0411102-1.5497-.012215ZM5.95237.13137c-.01503.015059-.02676 1.37342-.02676 3.01873v2.99114h1.31406V3.91463c0-1.87523.00838-2.21708.05519-2.16639.02842.03347.30927.93804.62024 2.01093.58346 2.00575.65867 2.24219.72889 2.3307.0652.08082 1.00309.07095 1.08333-.01121.09527-.19391.17089-.39689.22571-.60589.16717-.54465.20397-.6678.43807-1.46712.0685-.23727.1855-.6345.2591-.88299.0735-.24847.1922-.65056.2641-.89335.0769-.2617.1505-.44141.1806-.44141.0418 0 .0518.43505.0518 2.17658v2.17676h1.3542V3.1876c0-1.62442-.01-2.982941-.0234-3.018581-.0218-.056724-.1454-.064923-.9747-.064923-.3482-.0085049-.6965.003844-1.0432.03698-.1271.050198-.1872.207652-.4514 1.195044-.12369.46316-.30093 1.12828-.39623 1.4785-.09529.35021-.20395.75665-.2424.90356-.10532.40979-.1471.42652-.23403.09654-.0301-.10959-.20901-.75296-.39959-1.4313-.1906-.67834-.39791-1.426125-.4631-1.663395-.17722-.6500635-.1053-.615929-1.30733-.615929C6.62756.0958188 6.2894.104921 5.95237.13137Zm8.14343 6.00987h1.3943V.104096h-1.3943V6.14124Zm3.0293 0h1.3158V4.10822c0-1.20023.0133-2.03285.0351-2.03285.0335 0 .1036.11897.4247.7195.0601.11296.1855.34403.2791.51336.0936.16934.2308.41983.3042.55637.7725 1.44955 1.0684 1.97864 1.1737 2.10614l.1254.15059 1.4846.0256-.0218-6.021751-1.3341-.022422V2.01513c0 1.05232-.015 1.90351-.0334 1.89179-.1076-.16244-.2053-.33124-.2926-.50549C19.2066.817744 18.8973.263224 18.8037.197297c-.0904-.062245-.2173-.074628-.8911-.086173l-.7875-.0133866V6.14124ZM23.8877.13137c-.015.015059-.0268 1.37342-.0268 3.01873v2.99114h1.3944V.104096h-.6705c-.2327-.0078525-.4657.001262-.6971.027274Zm5.4334 6.00987h1.3558V3.88233h.7975c.9345 0 1.0281.02293 1.1268.2776.0439.14477.0675.29496.0702.44625.0084.39875.0753 1.3264.1037 1.43901.0217.09487.0234.09521.7189.09521h.6971l-.0217-.15394c-.0134-.08483-.0436-.53293-.067-.99593-.0233-.46299-.0618-.91226-.0835-.99826-.0421-.11669-.1082-.22324-.194-.31277-.0858-.08952-.1894-.16002-.3042-.20695-.0852-.02694-.1805-.0584-.2141-.06977-.0367-.0129.0319-.0656.1789-.13806.105-.04848.2057-.10574.301-.17117.2441-.21551.3561-.62346.3561-1.30648 0-.934355-.1957-1.393666-.6771-1.589606-.1605-.064922-.3811-.073791-2.1617-.085671L29.3211.0984064V6.14124Zm7.453-6.01238c-.6738.117129-.9547.464331-1.1436 1.41274-.0568.28763-.0686.5689-.0686 1.60165 0 1.12008.0101 1.29494.0854 1.65201.1437.68253.3694 1.06571.7272 1.23822.1739.08366.234.08718 1.7153.08718h1.5347l.204-.11111c.5584-.30319.7506-.92615.7991-2.57883.0251-.87395-.0585-1.93531-.1806-2.30526-.1738-.520221-.3745-.778741-.7088-.915948-.1756-.071784-.316-.079983-1.5297-.088683-.7339-.00502-1.3793-.001172-1.4344.008031Zm4.544.016734c.0769.180267.1651.355475.2641.524567.1471.264711.3878.702769.535.974009.1471.27123.4965.90356.7724 1.40672l.5016.9141v2.17625h1.3157V3.9583l.2139-.3974c.1171-.21836.4197-.77673.672-1.24073.2525-.46399.5535-1.01835.6689-1.23203.1153-.213673.2792-.512016.3628-.662777.0576-.095809.1089-.195239.1538-.297674-.2305-.023451-.4623-.0313334-.6938-.023593h-.6955l-.2091.400412c-.1136.220202-.2558.492778-.3159.605722-.0602.11294-.1839.35322-.2776.53394-.3577.69557-.4848.92398-.5149.92398-.0166 0-.3192-.54983-.6703-1.22148L42.7608.125179l-.7205-.011211c-.4882-.008199-.7222.002344-.7222.031626Zm12.236 5.995646h4.1846V5.03337l-2.8086-.02158-.0218-4.907694h-1.3542V6.14124Zm5.3816 0h4.3835V5.03237h-3.0293v-1.4375h2.3522V2.52916l-2.3322-.02175V1.23338l3.0093-.02141V.104096h-4.3835V6.14124ZM32.4273 1.23908c.2224.04551.2625.1643.2625.77271 0 .45312-.0117.55218-.0735.64755-.0987.14942-.1857.16063-1.1235.14658l-.7958-.01205-.0117-.7379c-.0067-.40578-.0017-.76151.0084-.79063.015-.04049.2038-.0527.8141-.0527.4363.00033.8494.01138.9195.02644Zm6.5787.07663c.1588.14825.1789.34151.1789 1.78637.0016 1.42229-.0268 1.73602-.1673 1.85632-.0935.07882-1.7654.07664-1.8573-.00234-.1037-.08868-.1422-.3052-.194-1.08076-.0367-.49215-.0367-.98635 0-1.4785.0653-1.03273.0886-1.10033.3928-1.14785.2933-.02164.5873-.028.8812-.01908.5968.00987.6971.02108.7657.08584Zm10.9487 1.14986c.1738.59853.3093 1.0975.2976 1.10871-.2307.01987-.4624.02674-.6939.02059-.5249 0-.672-.01155-.6569-.05138.02-.05555.0852-.28211.3677-1.26282.2642-.91075.2609-.90355.316-.90355.0301 0 .1722.41798.3695 1.08845ZM.442063 7.93498C.45711 8.40533.442031 12.1722.408594 16.3058.375158 20.4395.336703 25.7263.321656 28.0539l-.026734 4.2322 1.011458.8162c.55672.4487 1.02315.8337 1.03652.8555.02097.0125.04449.0202.06882.0222.02432.0021.04884-.0014.07163-.0101.1722-.0415.87436-.1704 2.04631-.3769.5818-.1021 1.36419-.2404 1.74202-.3069.37783-.0664.69548-.1213.70717-.1213.02139-.1265.0287-.2551.02176-.3833-.00621-.1367.00218-.2738.02507-.4086.02379-.0014.04759.0025.06979.0112.0222.0086.04229.0219.05894.039.05851.042.26582.1716.46142.289l.35607.2127 2.0346-.1903c2.5379-.237 2.3356-.2056 2.3356-.3662.0023-.0938.0106-.1873.025-.2801l.0251-.1517.7892.4082 1.105-.0818c.6068-.0453 1.391-.103 1.7421-.1287.351-.0256.7539-.0583.8977-.0727l.2591-.0264.1203-.3697c.0437-.1444.0951-.2865.1538-.4255.0251-.0417.1271.0402.403.3226l.3679.378.8325-.0656c1.0967-.0862 1.7169-.1328 2.8253-.2113.5033-.0362.9396-.0728.9664-.0818.0367-.0126.0501-.1887.0501-.6968 0-.508.0117-.6842.0502-.6961.0268-.0087.3661-.0266.7523-.0396l.7039-.0239.7923 1.3347.1756-.0091c.097-.0047.6152-.0363 1.1519-.0702.5366-.034 1.4696-.0924 2.0731-.13.3738-.0137.7466-.0479 1.1168-.1026.0116-.0187.0919-.3298.1772-.6915l.1571-.6574.1605-.021c.0886-.0115.3327-.0259.54-.032l.3795-.0111.0685.349c.0369.1919.097.5153.1321.7194.0176.1379.0502.2734.0969.4042.0302.0318 2.879-.0213 4.3284-.0808l.6403-.0265.1405-.3256c.0429-.1183.1013-.2305.1738-.3333.0724.1093.1271.2294.1622.3558.072.1997.1354.368.1421.3744.0066.0064.4013.041.8744.0773l.861.0661.4531-.2122.4546-.2122 1.1971.6333.9363.0394c.5149.0218 1.4745.0589 2.1332.0822 1.5163.054 3.8485.1551 4.2648.185.56.0404 2.5027.143 2.71.143.1856 0 .2307-.0224.6503-.328.1529-.1178.3119-.2272.4765-.3278.1127.1349.2139.2792.3026.431.0849.164.2001.3102.3394.4312.0351 0 .2256.0188.4229.0405 1.3258.1467 1.9226.2118 2.2721.2474.4513.0461.9027.1004 2.5511.3073 1.844.2317 2.4375.3057 2.9692.3701.2742.0334.632.0793.7958.1018.1638.0224.5968.0776.9579.1224l1.3359.1656c.3711.0461 1.197.1482 1.8323.2263.6353.0782 1.2321.161 1.3257.1841.079.0203.1595.0341.2407.0413.1787-.1293.3366-.2852.4681-.4621.2174-.2541.5986-.6968.8443-.9841l.4498-.5225V20.1634l-.4481-.3113c-.2474-.1709-.6319-.4383-.8576-.594-.144-.092-.2803-.1954-.408-.3092 0-.0222 1.6735-2.1485 1.6735-2.1485v-.2883c0-.6507-.1237-8.53997-.1337-8.55034-.1296.00765-.2585.02336-.3862.04701-.2073.03229-.8426.12499-1.4127.20632-.5702.08131-1.4043.20078-1.8541.26772-.4497.06693-1.3458.19493-1.9928.2878-.6469.09286-1.543.22204-1.9928.2873-.4496.06525-1.3457.1941-1.9928.2863-.647.09219-1.2923.18523-1.4345.20715-.142.02192-.483.05906-.7572.08232-.2742.02326-.9112.07931-1.4144.12415-.5032.04485-1.2673.11145-1.6952.14793-.428.03647-.8159.08131-.8627.09934-.0585.0231-.1906.2527-.4347.7545-.1077.2525-.2391.494-.3928.7213-.0234 0-.3395-.1003-.7006-.2215-.3611-.1211-1.1685-.3917-1.7937-.6-.6254-.2083-1.2489-.4166-1.3877-.4632l-.2542-.0836-2.1181.0702c-2.894.0963-5.2896.1788-6.6237.2279-.6136.0226-1.5399.0538-2.0598.069l-.9446.0276-.0216.1074c-.0118.0589-.0502.3562-.0837.6606-.0334.3044-.0786.6739-.0985.8213-.0201.1474-.0385.2826-.0385.3003 0 .0335-.1689-.1141-1.2906-1.1363-.3445-.3134-.6337-.5629-.6404-.5544-.0067.0086-.3144.3849-.6788.8367-.2187.287-.4537.5613-.7038.8213-.1442-.2777-.2672-.5659-.3677-.8623l-.3261-.8624-.7775-.028c-.7054-.0251-2.822-.0891-6.5953-.1994-1.5714-.046-3.1195-.1103-3.4472-.1431-.1204-.012-.7841-.0589-1.4746-.1041-1.5431-.1004-2.7702-.18235-3.9472-.2625-.4932-.03346-1.3758-.09236-1.9643-.13067l-1.0683-.06978-.2274.09471c-.1238.0522-.2976.1265-.3862.16515-.0886.03869-.2625.11329-.3879.16599l-.2307.0957-.8158-.8219-2.34223-.34185c-1.28897-.18807-2.35059-.33465-2.35896-.32528-.00835.00937-.02842.41831-.04513.90942.00079.29861-.01875.59691-.0585.89281-.01671 0-.59351-.3438-1.28063-.76414-.68712-.42032-1.83566-1.12209-2.5512-1.55948-.71554-.43739-1.422707-.8701-1.569828-.96364l-.267507-.16866.028448.8542ZM4.07158 11.8029l2.3121 1.6188 1.53142.9744.04179-1.4183s.00667-1.4206.06686-1.4439c.09195-.0363 2.77525.3178 2.82535.3736.0285.0308.0318 1.199.0134 3.7001-.0134 2.0104-.0284 6.1993-.0301 9.3087l-.005 5.6537-.2691.0445c-.1472.0244-.4214.0636-.60694.0875-.18557.0237-.62695.0816-.97803.1289-.35108.0474-.72725.0879-.83591.0906l-.19893.0048-.00502-6.3973c-.00336-4.2142.03346-6.4224.03346-6.4224l.02171-.4861s-2.34723-1.461-2.42748-1.4927c-.02006-.0077-.0351 3.2773-.0351 7.5647 0 5.3574-.0117 7.586-.0418 7.6053-.0418.0259-.90445.1674-2.1299.3474-.19487.0177-.38686.059-.57174.1231-.00962.0143-.02299.0257-.03861.0329-.01564.0073-.03291.01-.05001.0081-.07189 0-.0769-.0335-.0769-.4398V11.9478c-.01002-.3748.00001-.75.03009-1.1238.01671.0005 1.42439.9789 1.42439.9789Zm62.71502 3.1489c0 1.8537-.01 2.3665-.0502 2.3801-.0267.0096-.6319.0465-1.3441.0821-.7122.0356-1.3224.067-1.3558.0683-.1806.0103-.1739.0931-.1455-1.6384.0151-.8981.0134-1.6536-.0033-1.6794-.0218-.0346-.3261-.0205-1.167.0536-.6236.0553-1.1569.108-1.1853.1171-.0384.0134-.0502.446-.0502 1.9793v1.9624l5.2813 3.0499.0217 10.0408c-.0016.4394-.0016.4416-.0986.4416.0753 0-.2324-.1038-.6403-.1642.5802.0859-3.6663-.5674-3.6663-.5674l-3.8067-.5097v-7.2268l2.8705.0987.0401 4.7765 2.3908.2677-.0118-5.5425s-.8292-.5053-1.304-.7971c-.7339-.4518-1.9092-1.1437-2.6098-1.5379-.7004-.3943-1.3006-.7406-1.3306-.7698-.0469-.0443-.0485-.6753-.0201-4.0093l.035-3.9567.3377-.0494c.1873-.0271.9764-.1328 1.7538-.2343l2.8455-.3731c2.0279-.2664 3.2132-.39 3.2132-.39v4.1288-.0009Zm-53.2291-2.8134c.5049.0458 1.3106.1198 1.7938.1647.4832.0448 1.5281.1403 1.5281.1403s2.379.2176 2.2603.2077c.3712.0334.871.0742 1.1101.0915l.4346.0313-.0083.5955c-.0033.3274-.0234 1.8983-.0451 3.4908-.0218 1.5924-.0368 5.1077-.0368 7.8116l-.0017 4.9161-.1303.0203c-.0703.0109-.2726.0299-.4482.042-.1755.0119-.7489.0589-1.2756.1047-.5266.0456-.978.0836-1.0064.0836-.0401 0-.0468-.6808-.0401-3.3368l.0117-3.3368-.0334-.4712-2.3941-1.2039s-.0251 1.9518-.0251 4.3061v4.2803l-.2892.0272c-.1588.0152-.3862.0439-.5066.0639-.1203.0201-.3829.0488-.5834.0638l-.3627.0274-1.1303.0907.0251-16.1557c.0134-1.1422.0318-2.1002.0401-2.1291.0109-.0174.0279-.0301.0477-.0358.0197-.0056.0408-.0039.0593.0051.0485.0116.5033.059 1.0065.1047Zm43.5275 2.8635c-.0151 1.6433-.0351 5.7769-.0451 9.1862-.01 3.4093-.0218 6.2026-.0284 6.2078-.103-.0021-.2058-.011-.3077-.027-.1655-.0204-.6402-.0753-1.0565-.122-.4164-.0469-.8928-.1015-1.0567-.1215-.1638-.0201-.3309-.0376-.3694-.0387-.0653-.0021-.0686-.3012-.0585-5.8648l.01-5.8626.0118-.456s-.4849-.2448-1.4362-.735c-.3141-.1742-.6392-.3282-.973-.4609-.0134.0144-.0351 2.9794-.0484 6.5889-.0201 5.1772-.0753 6.5523-.0753 6.5523l-2.7953-.2716s-.0518-.9643-.03-5.96c.0216-5.4148.0869-10.8167.1287-10.8613.3519.115.6964.2518 1.0315.4096.0885.0391.6169.2603 1.1769.4916 1.9009.7865 2.0514.8515 2.5261 1.0831.2626.1275.4799.2268.4849.221.0084-.0087.0768-2.6801.0768-2.6801l.3394-.0322c.1873-.018.769-.0753 1.2957-.1278.5266-.0526 1.0165-.0978 1.0918-.1004l.1354-.006-.0285 2.9874Zm-9.7417-1.5504c-.087 5.2603-.1036 16.0215-.1036 16.0215s0-.0133-3.6246-.1893c.54.0262-4.5691-.1966-4.5691-.1966l.1405-15.8124.6621-.0473s.555-.0384 1.212-.062c.657-.0235 1.3325-.0547 1.5029-.0689l.3093-.0258c.0916-.0021.1832.0015.2742.0106.189 0 .1957-.0286.1957-.0286l.4714-.0244c1.105-.0574 2.7953-.154 2.924-.1674.0769-.0079.2475-.0122.3779-.0098l.2356.0041-.0083.5963Zm-20.4531-.3532c1.0851.0587 2.3372.1066 2.7836.1066h.8125s-.0602 2.1585-.0685 2.1679c-.0083.0093-2.6716.0293-2.6716.0293l-.025 1.1294c-.0184.8678-.0769 12.5979-.0769 12.5979-.0684.0395-.147.0578-.2257.0525-.1271 0-.3996.0176-.6086.0379-.209.0202-.7506.0502-1.2054.0659l-.8275.0291.005-5.4777c.0033-3.0129.0168-6.1619.0301-6.9975.0134-.8357.015-1.5336.0033-1.5506-.0117-.0171-.55-.0502-1.1953-.073-.9914-.0355-1.4328-.0846-1.4328-.0846l.0318-2.2979s2.1015.1262 4.671.2648Zm7.7907.7768c.4827 1.0743.7687 2.2266.8443 3.402l.0251.3963-.2942.0256c-.1622.0138-.6621.0205-1.1118.0142l-.8176-.0111-.0116-.2024c-.0319-.502.199-1.8071.4681-2.6523.1805-.5629.5684-1.437.6403-1.437.1075.1418.1942.2983.2574.4647Zm-19.3596.9538c-.0167.0176-.0301.8386-.0301 1.8246v1.793l.3494.1986c.8192.4671 1.9844 1.0886 2.0178 1.0771.0502-.0168.0518-.067.0603-2.5335l.0083-2.1965-.092-.027c-.0502-.0149-.4496-.0483-.8893-.0742-.4397-.0261-.9313-.0578-1.0951-.0707-.1094-.0162-.221-.0131-.3293.0094v-.0008Zm27.8508.4875-1.1569.0441-.0234 1.006c-.0535 2.1635-.0885 10.6649-.0451 10.6922.0234.015.4965.0457 1.0515.0685.5551.0227 1.0816.046 1.1703.0513l.1588.0097.0234-4.2917c.0135-2.3603.0318-5.0385.0402-5.9515.01-1.0876.0033-1.6619-.0234-1.666-.0217-.0027-.5601.0141-1.1954.0382v-.0008Zm-7.6336 3.38.0018.4415.438 1.0526v8.5394c0 .0776-.0435.0797-1.5749.0797-1.5313 0-1.5748-.0021-1.5748-.0797v-8.5436l.438-1.0441v-.8857h2.2719v.4415-.0016Z" fill="#fff"/></g><defs><clipPath id="a"><rect width="68.9128" height="34" fill="#fff" transform="translate(.294922)"/></clipPath></defs></svg>