<svg xmlns="http://www.w3.org/2000/svg" width="400" height="152.77660025" viewBox="0 0 400 152.77660025"><g fill="#fff" fill-rule="evenodd"><path d="M40.648 78.233c-.036.032-.852.107-1.815.167-.962.06-1.975.139-2.25.177-.275.037-1.137.151-1.916.253-1.782.233-4.477.784-5.365 1.098-.372.131-.775.239-.895.239s-.43.087-.688.194c-.55.228-.508.214-1.094.379-.252.071-.458.196-.458.278 0 .082-.103.149-.228.149-2.028 0-9.167 5.348-11.014 8.25-.35.55-.691 1.037-.759 1.083-.919.622-3.714 8.187-4.249 11.5-.067.412-.178.825-.246.917-.133.177-.153.282-.251 1.333-.035.367-.077.704-.094.75-.018.046-.028.124-.024.174.005.049-.112.874-.26 1.833-.233 1.515-.276 4.512-.328 22.952l-.061 21.208 35.632-.042 35.632-.042.05-19.416c.055-21.458-.081-25.537-.957-28.781-.079-.291-.107-.566-.063-.61.044-.045.007-.218-.082-.387-.089-.168-.205-.568-.256-.889-.105-.657-.237-1.25-.277-1.25-.014 0-.047-.15-.073-.333-.067-.481-.163-.821-.259-.917-.046-.046-.343-.871-.661-1.833-.5-1.512-2.366-5.591-2.669-5.834-.057-.046-.284-.383-.503-.75-.22-.366-.441-.704-.492-.75-.051-.046-.425-.52-.831-1.054-.73-.961-3.618-3.779-3.872-3.779-.073 0-.677-.366-1.344-.814-.666-.448-1.886-1.141-2.711-1.542-.825-.4-1.525-.784-1.556-.852-.03-.069-.237-.125-.458-.125-.222 0-.403-.069-.403-.154 0-.129-1.203-.611-1.882-.754-.111-.023-.314-.086-.451-.14-.415-.161-3.099-.78-4.468-1.03-1.512-.275-2.513-.407-5.199-.682-1.048-.107-9.754-.261-9.852-.174m167.348-.014c-.048.052-.911.109-1.917.127-1.933.034-5.376.366-6.912.667-.505.099-1.18.22-1.5.269-.321.049-1.109.232-1.75.407-.642.175-1.28.341-1.417.368-.138.027-.363.1-.5.161-.138.061-.437.144-.667.184-.229.04-.454.088-.5.105-.046.018-.139.024-.208.013-.069-.011-.125.053-.125.141 0 .089-.103.122-.229.074-.125-.048-.35.034-.498.183-.149.148-.346.223-.438.166-.093-.057-.168-.024-.168.073s-.057.16-.125.14c-.398-.115-5.284 2.574-6.788 3.736-1.697 1.311-5.087 5.048-5.087 5.607 0 .091-.067.191-.148.221-.264.1-2.431 4.686-2.939 6.222-.273.825-.563 1.548-.643 1.607-.081.058-.098.184-.039.28.059.095.026.224-.073.285-.1.062-.142.215-.094.34.048.125.011.275-.083.333-.094.058-.13.211-.081.339.049.128.025.233-.054.233s-.183.244-.231.542c-.048.298-.236 1.366-.419 2.375-.183 1.008-.369 2.17-.415 2.583-.046.412-.176 1.537-.289 2.5-.622 5.285.003 17.941 1.018 20.61.091.24.127.475.079.523-.047.047-.001.189.103.314.103.125.143.273.088.328-.055.055.009.312.143.571.134.259.243.647.243.862 0 .216.063.463.141.55.077.087.308.707.514 1.376.814 2.647 2.846 6.572 4.201 8.116.263.299.478.599.478.665 0 .279 3.127 3.395 3.291 3.281.023-.016.187.102.363.262 3.422 3.105 10.506 5.556 18.512 6.405 2.777.294 13.436.297 15.834.005 7.241-.884 14.773-3.228 17.083-5.317.183-.165.549-.412.813-.549 2.733-1.413 8.504-9.712 9.163-13.179.042-.223.268-1.06.502-1.858 2.128-7.28 2.405-23.751.505-30.005-.048-.16-.123-.497-.167-.75-.15-.874-1.051-3.88-1.236-4.127-.069-.091-.177-.41-.241-.708-.063-.298-.185-.542-.269-.542-.084 0-.153-.095-.153-.213 0-.117-.218-.623-.483-1.125-1.122-2.117-2.03-3.734-2.146-3.82-.069-.05-.343-.429-.611-.842-1.669-2.572-6.031-5.928-9.76-7.51-.505-.214-.961-.453-1.015-.531-.054-.078-.261-.154-.459-.169-.198-.015-.36-.086-.36-.158 0-.073-.152-.132-.339-.132-.186 0-.524-.121-.75-.269-.226-.148-.411-.22-.411-.161 0 .06-.147.03-.327-.066-.18-.097-.536-.204-.791-.239-.256-.036-.69-.145-.965-.244-2.649-.95-17.646-2.294-18.254-1.635m-95.433 1.989c-.069.206-.141.45-.159.542-.018.092-.801 2.192-1.739 4.667-.937 2.475-1.843 4.875-2.012 5.333-.169.458-.578 1.508-.908 2.333-.331.825-.609 1.594-.618 1.709-.009.114-.07.208-.137.208-.142 0-.393.823-.343 1.125.019.115-.035.208-.121.208-.085 0-.282.394-.438.875-.156.482-.382 1.1-.501 1.375-.322.741-.736 1.837-1.262 3.334-.257.733-.912 2.495-1.454 3.916-.543 1.421-1.267 3.334-1.608 4.25-2.208 5.929-3.6 9.566-3.822 9.988-.142.269-.219.55-.173.625.047.076-.002.137-.109.137s-.155.103-.107.229c.048.125-.043.444-.203.708-.16.264-.335.63-.39.813-.055.184-.336.934-.624 1.667-.289.733-.702 1.821-.918 2.417-.217.596-.63 1.683-.919 2.416-.289.734-.662 1.746-.829 2.25-.167.504-.877 2.417-1.579 4.25-.702 1.834-1.58 4.159-1.951 5.167-1.391 3.776-1.845 4.921-1.983 5.006-.078.049-.099.198-.048.333.052.134.007.244-.1.244-.107 0-.148.075-.091.167.056.092.031.167-.056.167-.146 0-.328.471-.472 1.223-.032.169-.17.467-.307.662-.137.196-.249.491-.249.658 0 .166-.104.468-.232.671s-.283.538-.345.744l-.112.375 15.553-.001 15.553-.001.292-.514c.161-.282.251-.582.199-.665-.052-.084-.015-.152.082-.152.098 0 .177-.144.177-.32 0-.176.105-.532.234-.792.263-.528.512-1.207 1.762-4.805.478-1.375 1.193-3.4 1.589-4.5l.72-2h18.586l.643 1.75c.354.962.989 2.762 1.411 4 .863 2.53 1.302 3.778 2.056 5.833.286.779.561 1.586.612 1.792l.093.375H176.333v-.417c0-.229-.079-.416-.176-.416-.097 0-.139-.062-.092-.137.047-.076-.031-.357-.173-.625-.279-.528-2.541-6.396-2.887-7.488-.116-.367-.31-.892-.431-1.167-.12-.275-.941-2.45-1.822-4.833-.881-2.384-1.664-4.484-1.738-4.667-.075-.183-.302-.783-.505-1.333-.743-2.012-.873-2.343-1.106-2.806-.13-.259-.236-.535-.236-.614 0-.078-.066-.316-.147-.528-.081-.212-.159-.461-.175-.552-.015-.092-.139-.336-.274-.542-.135-.206-.205-.375-.155-.375.05 0-.058-.291-.239-.646-.181-.355-.283-.693-.225-.75.057-.057.031-.104-.057-.104-.089 0-.259-.281-.379-.625-.385-1.107-1.372-3.769-1.684-4.542-.166-.412-.679-1.762-1.139-3-.461-1.237-1.674-4.5-2.697-7.25-1.023-2.75-2.003-5.314-2.178-5.699-.175-.384-.318-.779-.318-.877 0-.098-.066-.308-.146-.468-.081-.159-.241-.589-.357-.956-.116-.366-.453-1.191-.748-1.833-.296-.642-.964-2.329-1.485-3.75-.52-1.421-1.161-3.146-1.424-3.833-.263-.688-1-2.638-1.637-4.334-.637-1.696-1.372-3.645-1.634-4.333-.261-.687-.478-1.325-.48-1.417-.004-.109-6.298-.181-18.453-.209l-18.446-.042-.127.376m100.049 5.859c1.159.308 2.137 1.12 2.508 2.082.46 1.191.46 53.512 0 54.703-1.229 3.183-7.645 3.16-8.676-.031-.335-1.038-.435-52.738-.104-54.278.458-2.135 3.316-3.263 6.272-2.476m-81.048 26.435c.232.686.731 2.11 1.108 3.165.377 1.054.783 2.216.901 2.583.119.367.331.967.472 1.333.435 1.133.509 1.331.531 1.417.147.583.841 2.467.967 2.625.09.115.116.208.056.208-.059 0 .009.225.151.5s.213.5.157.5c-.055 0 .073.282.285.625.213.344.371.643.352.665-.019.022 0 .135.042.25.042.116.224.642.403 1.169l.326.958H124.848l.391-1.042c.215-.573.628-1.751.918-2.618.29-.867.602-1.667.693-1.777.092-.11.204-.408.25-.661.046-.254.264-.854.483-1.334.22-.48.526-1.309.682-1.843.155-.534.343-1.084.417-1.223.141-.262.754-1.98 1.795-5.027.333-.977.62-1.764.636-1.749.016.015.219.589.451 1.276m-58.926 3.206c-.072 4.258-.75 5.657-2.845 5.877-.207.021-.414.049-.46.062-.25.069-49.998-.012-50.416-.082-.275-.045-.594-.091-.709-.102-.114-.01-.208-.072-.208-.137 0-.065-.211-.206-.468-.313-1.149-.476-1.526-1.847-1.529-5.555L16 112.5h56.692l-.054 3.208M125.712.169c-12.345.818-20.43 4.335-25.32 11.015-.993 1.355-2.725 4.312-2.725 4.65 0 .091-.088.166-.195.166-.107 0-.145.049-.085.11.061.06.017.221-.097.358-.868 1.043-2.43 7.031-3.072 11.782-.425 3.149-.426 14.847 0 18 .559 4.14 1.766 9.119 2.586 10.667.145.275.249.556.23.625-.019.068.041.125.133.125.091 0 .152.056.134.125-.019.068.291.762.686 1.541 2.641 5.198 5.409 8.053 10.288 10.608 1.178.617 2.179 1.172 2.225 1.234.1.136.709.337.849.281.055-.021.209.051.342.162.678.562 5.507 1.78 9.059 2.284 8.387 1.191 20.694.62 26.833-1.243 8.749-2.655 14.176-7.359 17.425-15.104.378-.901.828-1.949.999-2.329 1.683-3.731 2.775-14.043 2.335-22.057-1.083-19.72-8.661-29.38-25.299-32.247-4.208-.725-12.387-1.08-17.331-.753M16.167.6C10.52 1.271 5.684 2.984 1.331 5.855L0 6.733v66.269l14.708-.043 14.709-.042.083-21.5.083-21.5.379-.708c1.28-2.398 6.528-2.589 8.064-.294.244.366.409.722.366.792-.043.069.009.126.116.126.109 0 .15.116.093.265-.056.146-.046.352.021.459.171.267.16-1.025.187 21.818L38.833 73H49.994l.045-21.542.044-21.541.372-.695c1.447-2.706 7.193-2.531 8.511.261.262.554.287 2.252.329 22.06l.046 21.459 14.704-.043 14.705-.042V6.759l-.97-.642C81.92 2.24 75.326.315 68.75.562c-4.191.158-7.248.941-12.917 3.309-9.494 3.965-13.704 3.921-23.589-.247C26.334 1.131 20.666.065 16.167.6M173.5 37.332V73H203l.013-22.792.012-22.791.571 1.666c.314.917.62 1.78.679 1.917.158.365-.135-.51 4.89 14.583 2.563 7.7 4.772 14.196 4.91 14.435.137.24.203.481.147.538-.057.056-.027.198.066.315.093.117 1.059 2.894 2.149 6.171l1.98 5.959 14.666-.042 14.667-.042.042-35.626.042-35.626-14.709.042-14.708.043-.084 22.452-.083 22.451-1.738-5.201c-.955-2.861-1.796-5.282-1.869-5.379-.072-.097-1.303-3.735-2.735-8.083-4.018-12.205-6.915-20.837-7.092-21.136-.088-.149-.521-1.358-.961-2.687l-.801-2.417-14.777-.043-14.777-.042v35.667m81.833.001V73h29.5V41.828l.808 1.545c.444.849 1.542 2.969 2.439 4.71 3.266 6.338 3.8 7.336 3.983 7.456.103.067.138.124.078.125-.06.002.225.584.633 1.294.407.711 1.555 2.904 2.551 4.875.995 1.971 2.265 4.439 2.822 5.484.556 1.045 1.438 2.751 1.96 3.791l.948 1.892h15.728c13.387 0 15.741-.035 15.818-.235.084-.22-.699-1.614-.976-1.737-.069-.031-.125-.121-.125-.201 0-.08-1.324-2.343-2.942-5.028-1.618-2.685-3.129-5.22-3.359-5.632-.229-.413-.805-1.388-1.279-2.167-.473-.779-.968-1.604-1.099-1.833-.131-.229-.43-.68-.665-1-.504-.689-2.989-4.751-2.989-4.887 0-.051-1.398-2.404-3.106-5.228-1.708-2.825-3.189-5.286-3.292-5.471-.102-.185-.345-.56-.541-.833-.606-.851-2.061-3.383-2.061-3.588 0-.107.616-1.068 1.37-2.136 1.975-2.795 6.553-9.511 8.55-12.542.943-1.431 1.891-2.789 2.106-3.018.377-.401 2.92-4.118 6.248-9.131 1.663-2.505 2.745-4.064 3.684-5.308 1.151-1.523 2.809-1.359-13.661-1.351l-14.547.008-.834 1.325c-.458.729-.889 1.326-.958 1.326-.069 0-.125.107-.125.236 0 .13-.06.262-.133.292-.074.031-.986 1.443-2.028 3.139-1.041 1.696-2.957 4.771-4.256 6.833-1.299 2.063-2.569 4.125-2.822 4.584-.253.458-.601.986-.774 1.174-.348.377-3.412 5.187-5.638 8.85l-1.432 2.358-.043-15.066-.042-15.066H255.333v35.666m80.542-.041.042 35.625 32.041.042 32.042.042V48.333h-34.667v-7.166h13.153c7.235 0 13.272-.046 13.417-.101.231-.089.264-.628.264-4.334V32.5h-26.834V26h32.834V1.667h-62.334l.042 35.625M133.549 7.968c1.001.442 1.719 1.329 1.94 2.397.13.628.17 8.593.139 27.385l-.045 26.5-.37.693c-1.383 2.585-6.238 2.633-8.261.081-.596-.752-.619-1.779-.619-27.789 0-24.86.041-27.217.48-27.568.057-.046.212-.292.343-.548.73-1.415 4.33-2.064 6.393-1.151"/><path d="M207.127 78.285c.207.039.507.038.667-.004.159-.042-.011-.074-.377-.072-.367.002-.497.036-.29.076m6.5 0c.207.039.507.038.667-.004.159-.042-.011-.074-.377-.072-.367.002-.497.036-.29.076M38.747 52.333c0 11.321.02 15.952.045 10.292.024-5.66.024-14.923 0-20.583-.025-5.661-.045-1.03-.045 10.291"/></g></svg>