<svg width="447" height="177" viewBox="0 0 447 177" fill="none" xmlns="http://www.w3.org/2000/svg"><path d="M26.5458 2.1478c.943 0 1.7579.65875 1.9556 1.58085L46.3778 87.1328c.1159.5408.5938.9272 1.1469.9272.6652 0 1.1973-.5526 1.1721-1.2173l-3.125-82.6193c-.0428-1.13341.8644-2.0756 1.9986-2.0756h26.2518c1.1046 0 2 .89543 2 2V171.972c0 1.105-.8954 2-2 2H49.2764c-.943 0-1.7579-.659-1.9555-1.581L29.4444 88.9871c-.1159-.5408-.5938-.9271-1.1469-.9271-.6652 0-1.1972.5525-1.1721 1.2172l3.125 82.6198c.0429 1.133-.8644 2.075-1.9986 2.075H2c-1.104571 0-2-.895-2-2V4.1478c0-1.10457.895431-2 2-2h24.5458ZM143.315 2.1478c1.031 0 1.893.78333 1.991 1.80936L161.38 171.824v.148c0 1.105-.895 2-2 2h-26.501c-1.035 0-1.899-.789-1.992-1.82l-3.354-37.168c-.093-1.031-.957-1.82-1.992-1.82h-8.476c-1.035 0-1.899.789-1.992 1.82l-3.354 37.168c-.093 1.031-.957 1.82-1.992 1.82H83.2254c-1.1046 0-2-.895-2-2v-.148L97.2998 3.95717c.0982-1.02603.9602-1.80937 1.9909-1.80937h44.0243ZM124.984 105.242c1.168 0 2.088-.996 1.994-2.16l-4.505-55.8245c-.049-.6099-.558-1.0797-1.17-1.0797-.612 0-1.121.4698-1.17 1.0796l-4.505 55.8246c-.094 1.164.826 2.16 1.994 2.16h7.362ZM226.908 2.1478c1.104 0 2 .89543 2 2v23.9215c0 1.1045-.896 2-2 2h-17.664c-1.104 0-2 .8954-2 2V171.972c0 1.105-.895 2-2 2h-28.495c-1.104 0-2-.895-2-2V32.0693c0-1.1046-.895-2-2-2h-17.663c-1.105 0-2-.8955-2-2V4.1478c0-1.10457.895-2 2-2h71.822ZM265.536 2.1478c1.104 0 2 .89543 2 2V171.972c0 1.105-.896 2-2 2H237.04c-1.104 0-2-.895-2-2V4.1478c0-1.10457.896-2 2-2h28.496ZM274.931 81.6165c0-28.6373 3.755-49.3994 11.265-62.2863C293.706 6.44341 304.754 0 319.341 0c14.587 0 25.635 6.44341 33.145 19.3302 7.51 12.8869 11.265 33.649 11.265 62.2863v12.8869c0 28.6376-3.755 49.3996-11.265 62.2866-7.51 12.887-18.558 19.33-33.145 19.33-14.587 0-25.635-6.443-33.145-19.33-7.51-12.887-11.265-33.649-11.265-62.2866V81.6165Zm35.745 56.7025c0 3.436.794 6.157 2.383 8.161 1.588 1.862 3.682 2.792 6.282 2.792s4.694-.93 6.283-2.792c1.588-2.004 2.382-4.725 2.382-8.161V36.7275c0-3.4365-.794-6.0855-2.382-7.9469-1.589-2.0046-3.683-3.007-6.283-3.007-2.6 0-4.694 1.0024-6.282 3.007-1.589 1.8614-2.383 4.5104-2.383 7.9469V138.319ZM397.724 2.1478c.943 0 1.758.65875 1.955 1.58085l17.877 83.40415c.115.5408.593.9272 1.146.9272.666 0 1.198-.5526 1.173-1.2173L416.75 4.2234c-.043-1.13341.864-2.0756 1.998-2.0756H445c1.105 0 2 .89543 2 2V171.972c0 1.105-.895 2-2 2h-24.546c-.943 0-1.758-.659-1.955-1.581l-17.877-83.4039c-.116-.5408-.594-.9271-1.147-.9271-.665 0-1.197.5525-1.172 1.2172l3.125 82.6198c.043 1.133-.864 2.075-1.998 2.075h-26.252c-1.105 0-2-.895-2-2V4.1478c0-1.10457.895-2 2-2h24.546Z" fill="#fff"/></svg>