<svg width="96" height="32" viewBox="0 0 96 32" fill="none" xmlns="http://www.w3.org/2000/svg"><path d="M45.578 21.142c-1.17 0-2.178-.738-3.636-3.42l-.378-.702c2.178-.126 3.456-1.53 3.456-3.492 0-2.214-1.512-3.528-4.122-3.528H35.75v12.51h1.53v-5.472h2.574l.738 1.35c1.71 3.24 2.898 4.158 4.932 4.158.144 0 .27-.018.396-.036v-1.422c-.09.036-.198.054-.342.054Zm-4.68-9.792c1.71 0 2.538.774 2.538 2.178 0 1.368-.81 2.16-2.538 2.16H37.28V11.35h3.618ZM54.4695 19.5223c-.594 1.188-1.404 1.908-2.79 1.908-1.71 0-2.754-1.116-2.844-2.898h6.678c.018-.108.018-.324.018-.486 0-2.628-1.512-4.392-3.996-4.392-2.448 0-4.266 1.854-4.266 4.536 0 2.664 1.872 4.536 4.41 4.536 2.052 0 3.258-1.134 3.942-2.484l-1.152-.72Zm-2.952-4.59c1.512 0 2.34.846 2.466 2.394h-5.112c.198-1.494 1.206-2.394 2.646-2.394ZM60.98 22.7263c1.008 0 1.98-.468 2.61-1.332v1.116h1.494v-5.418c0-2.232-1.44-3.438-3.51-3.438-1.98 0-3.402 1.134-3.852 2.97l1.35.378c.324-1.35 1.08-2.052 2.484-2.052 1.278 0 2.034.828 2.034 2.196v1.134c-.558-.522-1.44-1.026-2.61-1.026-1.926 0-3.312 1.224-3.312 2.736 0 1.692 1.386 2.736 3.312 2.736Zm.144-1.242c-1.134 0-1.872-.612-1.872-1.494 0-.864.738-1.476 1.872-1.476 1.044 0 1.926.576 2.466 1.206v.324c-.576.828-1.422 1.44-2.466 1.44ZM69.6424 22.51V10h-1.494v12.51h1.494ZM82.8777 13.6543c-1.278 0-2.394.414-3.15 1.548-.486-1.062-1.476-1.548-2.754-1.548-1.152 0-2.124.468-2.718 1.296v-1.08h-1.494v8.64h1.494v-5.22c0-1.512 1.044-2.34 2.376-2.34 1.332 0 2.034.828 2.034 2.358v5.202h1.494v-5.202c0-1.53 1.044-2.358 2.376-2.358 1.332 0 2.052.828 2.052 2.358v5.202h1.494v-5.346c0-2.16-1.152-3.51-3.204-3.51ZM92.4099 22.7263c1.98 0 3.474-.936 3.474-2.646 0-1.782-1.368-2.25-2.808-2.502l-1.026-.18c-1.206-.198-1.656-.504-1.656-1.278s.702-1.224 1.89-1.224c1.386 0 2.016.792 2.196 1.62l1.35-.36c-.252-1.422-1.368-2.502-3.492-2.502-2.106 0-3.402.972-3.402 2.484 0 1.854 1.404 2.322 2.88 2.592l1.008.162c1.098.198 1.512.468 1.512 1.206 0 .936-.81 1.386-1.89 1.386-1.368 0-2.412-.522-2.556-2.07l-1.386.252c.036 2.106 1.836 3.06 3.906 3.06ZM21.6673 28.1373c-.1454.0559-.2624-.1219-.1594-.2388 2.7967-3.1722 4.4935-7.3373 4.4935-11.8988 0-4.5614-1.6968-8.72656-4.4935-11.89874-.103-.11687.0139-.29473.1594-.23879 4.8747 1.87513 8.3341 6.60233 8.3341 12.13753s-3.4594 10.2625-8.3341 12.1376Z" fill="#fff"/><path d="M22.7389 8.35852c.065.14767-.1411.29607-.2715.20109C21.8598 8.11704 20.7827 7.5 19.5 7.5c-2.5 0-6 3-6 8.5s2.5 8.5 5.5 8.5c1.6159 0 2.8139-.6266 3.4593-1.0699.133-.0913.3446.0637.2796.2114C21.1225 27.3165 17.8157 30 14 30 7.92487 30 2 23.732 2 16 2 8.26801 7.92487 2 14 2c3.8157 0 7.1225 2.68351 8.7389 6.35852Z" fill="#fff"/></svg>