<svg width="266" height="68" viewBox="0 0 266 68" fill="none" xmlns="http://www.w3.org/2000/svg"><path d="M119.679 51.9984c-3.377 0-6.255-.6099-8.634-1.8298-2.325-1.2067-4.382-2.8802-6.045-4.9181l4.49-4.1734c1.42 1.7166 2.975 3.0116 4.663 3.8882 1.726.8768 3.684 1.3151 5.871 1.3151 2.571 0 4.509-.5717 5.814-1.715 1.305-1.1433 1.957-2.6882 1.957-4.6315 0-1.5633-.459-2.8016-1.382-3.7166-.921-.9149-2.553-1.6015-4.893-2.0583l-3.568-.6282c-3.915-.725-6.849-2.0032-8.807-3.8316-1.957-1.8299-2.937-4.3464-2.937-7.548 0-1.7533.327-3.335.98-4.7464.655-1.4026 1.619-2.6348 2.82-3.6016 1.228-.9916 2.705-1.7534 4.433-2.2882 1.726-.5333 3.664-.8001 5.813-.8001 3.033 0 5.661.5334 7.887 1.6016 2.226 1.0299 4.178 2.5777 5.697 4.5166l-4.546 4.0031c-1.028-1.3275-2.323-2.4193-3.8-3.2031-1.496-.8-3.357-1.2-5.583-1.2-2.302 0-4.087.4567-5.353 1.3716-1.267.9166-1.9 2.2498-1.9 4.0032 0 1.6766.518 2.9349 1.555 3.7732 1.035.8015 2.648 1.41 4.834 1.83l3.57.7433c4.029.7632 6.964 2.0583 8.807 3.8881 1.879 1.8299 2.819 4.3465 2.819 7.5481 0 1.8682-.325 3.5648-.977 5.0882-.649 1.5197-1.633 2.8695-2.878 3.9464-1.228 1.0667-2.746 1.905-4.548 2.515-1.803.5716-3.856.8582-6.159.8582Zm30.661 0c-2.073 0-3.974-.3616-5.698-1.0866-1.648-.6944-3.123-1.7491-4.319-3.0882-1.19-1.3716-2.111-3.0114-2.763-4.9165-.653-1.9433-.978-4.0981-.978-6.4614 0-2.3633.325-4.4981.978-6.4032.652-1.9449 1.573-3.5847 2.763-4.9196 1.183-1.3667 2.661-2.4419 4.319-3.1434 1.724-.7249 3.625-1.0866 5.698-1.0866 2.071 0 3.952.3617 5.641 1.0866 1.679.6913 3.177 1.768 4.373 3.1449 1.191 1.3334 2.11 2.9732 2.764 4.9181.651 1.9051.979 4.0399.979 6.4032 0 2.3633-.328 4.5181-.979 6.4614-.654 1.9065-1.573 3.5449-2.764 4.9181-1.209 1.3476-2.704 2.4026-4.373 3.0866-1.689.725-3.57 1.0882-5.641 1.0882v-.0016Zm0-5.1464c2.148 0 3.876-.6483 5.18-1.9433 1.304-1.3334 1.957-3.3165 1.957-5.9465v-5.0315c0-2.6314-.653-4.5948-1.957-5.8898-1.304-1.3348-3.032-2.0015-5.18-2.0015-2.151 0-3.878.6667-5.181 2.0015-1.305 1.295-1.958 3.2584-1.958 5.8898v5.0315c0 2.63.653 4.6131 1.958 5.9465 1.303 1.295 3.03 1.9433 5.181 1.9433Zm24.143 4.4599c-2.148 0-3.761-.5319-4.835-1.6001-1.037-1.105-1.554-2.6299-1.554-4.5748V9h6.273v37.2237h4.145v5.0882h-4.029Zm18.775.6865c-2.149 0-4.067-.3616-5.757-1.0866-1.647-.6951-3.121-1.7497-4.316-3.0882-1.19-1.3716-2.111-3.0114-2.763-4.9165-.616-1.9433-.923-4.0981-.923-6.4614 0-2.3633.307-4.4981.923-6.4032.652-1.9449 1.573-3.5847 2.763-4.9196 1.182-1.3667 2.658-2.4419 4.316-3.1434 1.69-.7249 3.608-1.0866 5.757-1.0866 2.186 0 4.106.3816 5.756 1.1433 1.688.7633 3.089 1.83 4.201 3.2031 1.113 1.3334 1.938 2.8967 2.476 4.6883.574 1.7915.862 3.7165.862 5.7748v2.3448h-20.549v.9717c0 2.2867.672 4.1733 2.016 5.6599 1.381 1.4483 3.338 2.1732 5.871 2.1732 1.841 0 3.396-.3985 4.662-1.2 1.266-.8 2.342-1.8882 3.222-3.2598l3.686 3.6016c-1.113 1.8298-2.725 3.2981-4.836 4.4031-2.111 1.0683-4.566 1.6015-7.367 1.6015Zm0-26.2456c-1.076 0-2.073.1915-2.995.5717-.866.3702-1.649.9151-2.3 1.6015-.634.7178-1.123 1.5532-1.441 2.4598-.354 1.0088-.53 2.073-.518 3.1434v.4015h13.93v-.5732c0-2.2867-.595-4.1165-1.784-5.4882-1.19-1.41-2.821-2.1149-4.892-2.1149v-.0016Zm17.248 25.5591V21.5796h6.275v4.918h.286c.626-1.5647 1.636-2.9424 2.936-4.0031 1.343-1.0682 3.168-1.6016 5.469-1.6016 3.07 0 5.448 1.0115 7.138 3.0299 1.726 1.9833 2.591 4.8231 2.591 8.5212v18.8679h-6.275V33.2426c0-4.6499-1.879-6.9748-5.642-6.9748-.817.0018-1.631.1173-2.417.3433-.739.1779-1.44.4878-2.071.9149-.61.4147-1.122.9613-1.498 1.6001-.346.6483-.517 1.4099-.517 2.2881v19.8977h-6.275Zm49.22-4.9166h-.287c-.653 1.7533-1.727 3.1265-3.224 4.1166-1.46.9915-3.185 1.4865-5.18 1.4865-3.8 0-6.736-1.3533-8.809-4.0598-2.071-2.7434-3.107-6.5747-3.107-11.4914 0-4.9196 1.036-8.7296 3.107-11.4362 2.073-2.7449 5.009-4.1165 8.809-4.1165 1.995 0 3.72.495 5.18 1.4866 1.497.9517 2.571 2.3249 3.224 4.1165h.287V9H266v42.3133h-6.274v-4.918Zm-6.791.2299c1.918 0 3.528-.4583 4.834-1.3733 1.305-.9532 1.957-2.1915 1.957-3.7164V31.3574c0-1.5249-.652-2.7433-1.957-3.6597-1.306-.9534-2.916-1.4299-4.834-1.4299-2.188 0-3.935.705-5.239 2.1149-1.305 1.3732-1.957 3.2032-1.957 5.4913v5.1465c0 2.2851.652 4.1349 1.957 5.5449 1.304 1.3732 3.051 2.0583 5.239 2.0583v.0015Z" fill="#fff"/><path fill-rule="evenodd" clip-rule="evenodd" d="M23.1476 1.83022c2.5301 2.48051 2.5767 6.54897.1041 9.08718l-7.2325 7.4242c-4.3162 4.4306-4.2717 11.5052.1006 15.8813 4.3645 4.3682 11.4277 4.431 15.8693.1401 0 0 0 .0001 0 0l10.1364-9.7929c9.8647-9.5301 25.5135-9.4627 35.2953.1533 10.6387 10.4577 9.9906 27.8115-1.3964 37.4443l-5.1051 4.3187c-2.7045 2.2878-6.7457 1.9431-9.0263-.77-2.2805-2.7131-1.9369-6.7672.7676-9.0551l5.1052-4.3187c5.6122-4.7477 5.9295-13.288.6887-18.4396l-.0001-.0002c-4.8311-4.7491-12.5694-4.783-17.4422-.0754l-10.1364 9.7929c-9.4656 9.1445-24.5011 9.012-33.80425-.2991-9.3443-9.3523-9.44032-24.492-.21465-33.96227.00001-.00001-.00001.00001 0 0l7.2325-7.42427c2.4726-2.538191 6.5281-2.584949 9.0582-.10444Zm32.1184 5.3936c.9345 3.42288-1.0739 6.95778-4.486 7.89518-4.9592 1.3626-10.1891 4.9688-14.4812 8.7016-2.0735 1.8034-3.7881 3.5121-4.9793 4.7652-.5935.6243-1.0515 1.1296-1.3532 1.4696-.1508.1698-.2621.2978-.3314.3783-.0347.0402-.0588.0685-.0721.0841l-.0068.0079-.0015.0018c-.0002.0003-.0004.0005-.0005.0007-.0003.0003-.0005.0006-.0007.0008l-.0018.0021c0 .0001-.0001.0001-.0001.0001-2.2782 2.7108-6.3154 3.0583-9.0207.7751-2.7071-2.2846-3.0555-6.3383-.7781-9.0541l4.6541 3.9278c-4.6541-3.9279-4.6532-3.9289-4.6523-3.93l.007-.0083.0131-.0156c.0103-.0121.0234-.0276.0393-.0463.0318-.0375.0751-.0882.1294-.1511.1085-.126.2613-.3016.4558-.5207.3888-.4379.9456-1.0516 1.6494-1.7919 1.4034-1.4763 3.413-3.4794 5.8585-5.6063 4.7459-4.12755 11.7329-9.25522 19.489-11.38629 3.4121-.93748 6.9356 1.07738 7.8701 4.50031ZM53.9738 39.7821c2.2733-2.7145 6.3096-3.0692 9.019-.7911 2.7112 2.2797 3.0669 6.3327.7945 9.0527l-4.9092-4.1279c4.9092 4.1279 4.9083 4.129 4.9073 4.1301l-.0071.0085-.0133.0159c-.0103.0122-.0235.0279-.0396.0468-.0153.0181-.0333.0393-.0538.0633-.0224.0263-.0478.056-.0762.0891-.109.1268-.2623.3034-.4574.5236-.3898.44-.9479 1.0561-1.6534 1.7983-1.4065 1.48-3.4217 3.4859-5.8763 5.6088-4.7594 4.1162-11.7924 9.2226-19.6315 11.2299-3.4277.8777-6.9158-1.1984-7.7907-4.6372-.8749-3.4387 1.1946-6.9379 4.6224-7.8156 4.9354-1.2637 10.1451-4.8012 14.4348-8.5112 2.0699-1.7902 3.7809-3.4929 4.9693-4.7434.592-.6229 1.0486-1.1275 1.3492-1.4667.1501-.1695.2609-.2973.3297-.3773.0343-.0401.0582-.0681.0712-.0835l.0061-.0072c.0006-.0006.0011-.0012.0016-.0019.0005-.0005.0009-.001.0013-.0015.0006-.0007.0012-.0015.0018-.0022l.0003-.0003Z" fill="#fff"/></svg>