<svg width="180" height="40" viewBox="0 0 180 40" fill="none" xmlns="http://www.w3.org/2000/svg"><g clip-path="url(#a)" fill="#fff"><path d="M49.8588 9.7041v2.7586h-5.4935v17.8565h-3.3852V12.4627H35.457V9.7041h14.4018ZM54.4138 11.8101c-.6137 0-1.1284-.2076-1.5441-.6229-.4158-.4153-.6236-.9294-.6236-1.54238 0-.61302.2078-1.12716.6236-1.54243.4157-.41526.9304-.6229 1.5441-.6229.5939 0 1.0987.20764 1.5144.6229.4157.41527.6236.92941.6236 1.54243 0 .61298-.2079 1.12708-.6236 1.54238-.4157.4153-.9205.6229-1.5144.6229Zm1.6629 2.1653v16.3438h-3.3852V13.9754h3.3852ZM63.3109 16.3786c.5741-.7515 1.3561-1.3843 2.3459-1.8984.9898-.5142 2.1083-.7712 3.3555-.7712 1.4253 0 2.722.3559 3.8899 1.0678 1.1878.6921 2.1182 1.671 2.7913 2.9365.6731 1.2656 1.0096 2.7191 1.0096 4.3604 0 1.6413-.3365 3.1145-1.0096 4.4196-.6731 1.2853-1.6035 2.2938-2.7913 3.0255-1.1679.7119-2.4646 1.0678-3.8899 1.0678-1.2472 0-2.3558-.2471-3.3258-.7415-.97-.5141-1.7619-1.1469-2.3756-1.8984v10.1444h-3.3851V13.9759h3.3851v2.4027Zm9.9477 5.6951c0-1.1272-.2376-2.0962-.7127-2.9069-.4553-.8306-1.069-1.4535-1.841-1.8687-.7523-.4351-1.564-.6526-2.435-.6526-.8512 0-1.6629.2175-2.4349.6526-.7523.435-1.366 1.0678-1.8411 1.8983-.4553.8306-.683 1.8094-.683 2.9366 0 1.1271.2277 2.1159.683 2.9662.4751.8305 1.0888 1.4633 1.8411 1.8983.772.4351 1.5837.6526 2.4349.6526.871 0 1.6827-.2175 2.435-.6526.772-.4548 1.3857-1.1073 1.841-1.9576.4751-.8504.7127-1.8391.7127-2.9662ZM82.8422 27.5903h6.9782v2.7289H79.457V9.7041h3.3852v17.8862ZM93.781 11.8101c-.6137 0-1.1284-.2076-1.5441-.6229-.4157-.4153-.6236-.9294-.6236-1.54238 0-.61302.2079-1.12716.6236-1.54243.4157-.41526.9304-.6229 1.5441-.6229.5939 0 1.0987.20764 1.5144.6229.4157.41527.6236.92941.6236 1.54243 0 .61298-.2079 1.12708-.6236 1.54238-.4157.4153-.9205.6229-1.5144.6229Zm1.6629 2.1653v16.3438h-3.3852V13.9754h3.3852ZM107.548 13.709c1.287 0 2.435.2669 3.445.8008 1.029.534 1.831 1.325 2.405 2.373.574 1.0481.861 2.3136.861 3.7967v9.6402h-3.355v-9.1359c0-1.4633-.367-2.5806-1.099-3.3518-.733-.791-1.732-1.1865-2.999-1.1865-1.267 0-2.277.3955-3.029 1.1865-.732.7712-1.099 1.8885-1.099 3.3518v9.1359h-3.385V13.9759h3.385v1.8687c.555-.6723 1.257-1.1963 2.109-1.572.871-.3758 1.791-.5636 2.761-.5636ZM124.458 22.1619 132 30.319h-4.573l-6.058-7.0299v7.0299h-3.385V8.36914h3.385V21.1238l5.939-7.1486H132l-7.542 8.1867ZM2.17433 2.17195C-.724774 5.06788-.724775 9.76311 2.17432 12.659l6.08416 6.0775 2.09972-2.0974-6.08416-6.0775c-1.73946-1.73754-1.73946-4.55468 0-6.29223 1.73946-1.73756 4.55967-1.73756 6.29916 0L23.1714 16.8539c1.7395 1.7375 1.7395 4.5547 0 6.2922-1.7394 1.7376-4.5596 1.7376-6.2991 0l-1.9137-1.9116-2.0997 2.0975 1.9137 1.9116c2.8991 2.8959 7.5995 2.8959 10.4986 0 2.899-2.896 2.8991-7.5912 0-10.4871L12.6729 2.17195c-2.89911-2.895933-7.59948-2.895933-10.49857 0Z"/><path d="m9.52332 19.9998-7.349 7.341c-2.899094 2.8959-2.899093 7.5911 0 10.4871 2.8991 2.8959 7.59946 2.8959 10.49858 0l8.4037-8.3946c-1.2859.1427-2.5953.0236-3.8418-.3572l-6.6616 6.6544c-1.73949 1.7375-4.55971 1.7375-6.29917 0-1.73945-1.7376-1.73945-4.5547 0-6.2923L16.8723 16.8537c.6176-.6169 1.3714-1.0148 2.1646-1.1936l-2.31-2.3076c-.7054.349-1.3668.8169-1.9543 1.4038l-3.1496 3.1461-.005-.005-2.0997 2.0974.00502.005Z"/></g><defs><clipPath id="a"><rect width="180" height="40" fill="#fff"/></clipPath></defs></svg>